<mxfile host="65bd71144e">
    <diagram id="_ERIA1zSipQTDJqZzZRD" name="第 1 页">
        <mxGraphModel dx="3329" dy="2495" grid="1" gridSize="10" guides="1" tooltips="1" connect="1" arrows="1" fold="1" page="1" pageScale="1" pageWidth="827" pageHeight="1169" math="0" shadow="0">
            <root>
                <mxCell id="0"/>
                <mxCell id="1" parent="0"/>
                <mxCell id="17" value="" style="rounded=0;whiteSpace=wrap;html=1;" parent="1" vertex="1">
                    <mxGeometry x="40" y="200" width="580" height="520" as="geometry"/>
                </mxCell>
                <mxCell id="16" value="第一步 数据选择" style="rounded=0;whiteSpace=wrap;html=1;" parent="1" vertex="1">
                    <mxGeometry x="40" y="200" width="130" height="40" as="geometry"/>
                </mxCell>
                <mxCell id="26" value="" style="rounded=0;whiteSpace=wrap;html=1;" parent="1" vertex="1">
                    <mxGeometry x="320" y="280" width="250" height="410" as="geometry"/>
                </mxCell>
                <mxCell id="27" value="Store:&amp;nbsp;&lt;br&gt;&lt;span style=&quot;color: rgb(163, 21, 21); background-color: rgb(255, 255, 255); font-family: &amp;quot;Input Mono&amp;quot;, &amp;quot;Fira Code&amp;quot;, monospace, Menlo, Monaco, &amp;quot;Courier New&amp;quot;, monospace;&quot;&gt;view/chart/selectData&lt;/span&gt;" style="text;html=1;strokeColor=none;fillColor=none;align=center;verticalAlign=middle;whiteSpace=wrap;rounded=0;" parent="1" vertex="1">
                    <mxGeometry x="345" y="280" width="230" height="50" as="geometry"/>
                </mxCell>
                <mxCell id="28" value="&lt;div style=&quot;color: rgb(59, 59, 59); background-color: rgb(255, 255, 255); font-family: &amp;quot;Input Mono&amp;quot;, &amp;quot;Fira Code&amp;quot;, monospace, Menlo, Monaco, &amp;quot;Courier New&amp;quot;, monospace; line-height: 18px;&quot;&gt;&lt;div style=&quot;color: rgb(0, 0, 0); line-height: 18px;&quot;&gt;selectedDataOptions&lt;/div&gt;&lt;/div&gt;&lt;div style=&quot;color: rgb(59, 59, 59); background-color: rgb(255, 255, 255); font-family: &amp;quot;Input Mono&amp;quot;, &amp;quot;Fira Code&amp;quot;, monospace, Menlo, Monaco, &amp;quot;Courier New&amp;quot;, monospace; line-height: 18px;&quot;&gt;&lt;span style=&quot;color: rgb(0, 16, 128);&quot;&gt;可选数据源索引列表&lt;/span&gt;&lt;span style=&quot;color: rgb(0, 16, 128);&quot;&gt;&lt;br&gt;&lt;/span&gt;&lt;/div&gt;" style="rounded=0;whiteSpace=wrap;html=1;" parent="1" vertex="1">
                    <mxGeometry x="350" y="330" width="195" height="45" as="geometry"/>
                </mxCell>
                <mxCell id="30" value="&lt;div style=&quot;background-color: rgb(255, 255, 255); font-family: &amp;quot;Input Mono&amp;quot;, &amp;quot;Fira Code&amp;quot;, monospace, Menlo, Monaco, &amp;quot;Courier New&amp;quot;, monospace; line-height: 18px;&quot;&gt;&lt;div style=&quot;color: rgb(59, 59, 59); line-height: 18px;&quot;&gt;&lt;span style=&quot;color: #001080;&quot;&gt;currentChartData&lt;/span&gt;&lt;/div&gt;&lt;/div&gt;&lt;div style=&quot;background-color: rgb(255, 255, 255); font-family: &amp;quot;Input Mono&amp;quot;, &amp;quot;Fira Code&amp;quot;, monospace, Menlo, Monaco, &amp;quot;Courier New&amp;quot;, monospace; line-height: 18px;&quot;&gt;&lt;font color=&quot;#001080&quot;&gt;当前选中数据源完整数据&lt;/font&gt;&lt;/div&gt;" style="rounded=0;whiteSpace=wrap;html=1;" parent="1" vertex="1">
                    <mxGeometry x="347.5" y="475" width="202.5" height="45" as="geometry"/>
                </mxCell>
                <mxCell id="39" value="&lt;div style=&quot;background-color: rgb(255, 255, 255); font-family: &amp;quot;Input Mono&amp;quot;, &amp;quot;Fira Code&amp;quot;, monospace, Menlo, Monaco, &amp;quot;Courier New&amp;quot;, monospace; line-height: 18px;&quot;&gt;&lt;div style=&quot;color: rgb(59, 59, 59); line-height: 18px;&quot;&gt;&lt;div style=&quot;line-height: 18px;&quot;&gt;&lt;span style=&quot;color: #001080;&quot;&gt;currentChartId&lt;/span&gt;&lt;/div&gt;&lt;/div&gt;&lt;/div&gt;&lt;div style=&quot;background-color: rgb(255, 255, 255); font-family: &amp;quot;Input Mono&amp;quot;, &amp;quot;Fira Code&amp;quot;, monospace, Menlo, Monaco, &amp;quot;Courier New&amp;quot;, monospace; line-height: 18px;&quot;&gt;&lt;font color=&quot;#001080&quot;&gt;当前选中数据源的id&lt;/font&gt;&lt;/div&gt;" style="rounded=0;whiteSpace=wrap;html=1;" parent="1" vertex="1">
                    <mxGeometry x="342.5" y="630" width="205" height="50" as="geometry"/>
                </mxCell>
                <mxCell id="40" value="" style="rounded=0;whiteSpace=wrap;html=1;" parent="1" vertex="1">
                    <mxGeometry x="750" y="210" width="300" height="520" as="geometry"/>
                </mxCell>
                <mxCell id="41" value="第二步 图表选择" style="rounded=0;whiteSpace=wrap;html=1;" parent="1" vertex="1">
                    <mxGeometry x="750" y="210" width="120" height="40" as="geometry"/>
                </mxCell>
                <mxCell id="70" value="" style="rounded=0;whiteSpace=wrap;html=1;fontSize=12;" parent="1" vertex="1">
                    <mxGeometry x="760" y="360" width="240" height="344.5" as="geometry"/>
                </mxCell>
                <mxCell id="57" value="折线图预设1" style="rounded=0;whiteSpace=wrap;html=1;" parent="1" vertex="1">
                    <mxGeometry x="770" y="480" width="100" height="60" as="geometry"/>
                </mxCell>
                <mxCell id="58" value="折线图预设2" style="rounded=0;whiteSpace=wrap;html=1;" parent="1" vertex="1">
                    <mxGeometry x="880" y="480" width="100" height="60" as="geometry"/>
                </mxCell>
                <mxCell id="62" value="面积图预设1" style="rounded=0;whiteSpace=wrap;html=1;" parent="1" vertex="1">
                    <mxGeometry x="770" y="545.5" width="100" height="60" as="geometry"/>
                </mxCell>
                <mxCell id="63" value="面积图预设2" style="rounded=0;whiteSpace=wrap;html=1;" parent="1" vertex="1">
                    <mxGeometry x="880" y="545.5" width="100" height="60" as="geometry"/>
                </mxCell>
                <mxCell id="65" value="......" style="rounded=0;whiteSpace=wrap;html=1;" parent="1" vertex="1">
                    <mxGeometry x="770" y="615.5" width="100" height="60" as="geometry"/>
                </mxCell>
                <mxCell id="106" value="点击预设, &lt;br&gt;跳到第三部图表配置" style="text;html=1;strokeColor=none;fillColor=none;align=center;verticalAlign=middle;whiteSpace=wrap;rounded=0;fontSize=12;" parent="1" vertex="1">
                    <mxGeometry x="830" y="675.5" width="130" height="30" as="geometry"/>
                </mxCell>
                <mxCell id="109" style="edgeStyle=none;html=1;entryX=0.5;entryY=1;entryDx=0;entryDy=0;fontSize=12;" parent="1" edge="1">
                    <mxGeometry relative="1" as="geometry">
                        <mxPoint x="2028.5714285714284" y="485" as="sourcePoint"/>
                    </mxGeometry>
                </mxCell>
                <mxCell id="111" value="" style="rounded=0;whiteSpace=wrap;html=1;" parent="1" vertex="1">
                    <mxGeometry x="70" y="270" width="220" height="430" as="geometry"/>
                </mxCell>
                <mxCell id="141" style="edgeStyle=none;html=1;exitX=1;exitY=0.5;exitDx=0;exitDy=0;entryX=0;entryY=0.5;entryDx=0;entryDy=0;" parent="1" source="18" target="139" edge="1">
                    <mxGeometry relative="1" as="geometry"/>
                </mxCell>
                <mxCell id="160" value="3" style="edgeLabel;html=1;align=center;verticalAlign=middle;resizable=0;points=[];" parent="141" vertex="1" connectable="0">
                    <mxGeometry x="0.1158" relative="1" as="geometry">
                        <mxPoint as="offset"/>
                    </mxGeometry>
                </mxCell>
                <mxCell id="18" value="" style="rounded=0;whiteSpace=wrap;html=1;" parent="1" vertex="1">
                    <mxGeometry x="100" y="290" width="150" height="190" as="geometry"/>
                </mxCell>
                <mxCell id="20" value="数据源2" style="rounded=0;whiteSpace=wrap;html=1;" parent="1" vertex="1">
                    <mxGeometry x="110" y="370" width="120" height="30" as="geometry"/>
                </mxCell>
                <mxCell id="21" value="数据源3" style="rounded=0;whiteSpace=wrap;html=1;" parent="1" vertex="1">
                    <mxGeometry x="110" y="400" width="120" height="30" as="geometry"/>
                </mxCell>
                <mxCell id="23" value="......" style="rounded=0;whiteSpace=wrap;html=1;" parent="1" vertex="1">
                    <mxGeometry x="110" y="430" width="120" height="30" as="geometry"/>
                </mxCell>
                <mxCell id="24" value="select组件: &lt;br&gt;下拉选择数据源" style="rounded=0;whiteSpace=wrap;html=1;" parent="1" vertex="1">
                    <mxGeometry x="110" y="310" width="120" height="30" as="geometry"/>
                </mxCell>
                <mxCell id="29" style="edgeStyle=none;html=1;entryX=1;entryY=0.25;entryDx=0;entryDy=0;" parent="1" source="28" target="18" edge="1">
                    <mxGeometry relative="1" as="geometry"/>
                </mxCell>
                <mxCell id="159" value="2" style="edgeLabel;html=1;align=center;verticalAlign=middle;resizable=0;points=[];" parent="29" vertex="1" connectable="0">
                    <mxGeometry x="-0.1148" y="1" relative="1" as="geometry">
                        <mxPoint as="offset"/>
                    </mxGeometry>
                </mxCell>
                <mxCell id="36" value="" style="rounded=0;whiteSpace=wrap;html=1;" parent="1" vertex="1">
                    <mxGeometry x="90" y="510" width="190" height="150" as="geometry"/>
                </mxCell>
                <mxCell id="37" value="使用表格展示: 选中的数据源" style="rounded=0;whiteSpace=wrap;html=1;" parent="1" vertex="1">
                    <mxGeometry x="100" y="530" width="170" height="40" as="geometry"/>
                </mxCell>
                <mxCell id="116" value="ChartLayout&lt;br&gt;Context.provider" style="rounded=0;whiteSpace=wrap;html=1;" parent="1" vertex="1">
                    <mxGeometry x="530" y="-40" width="120" height="40" as="geometry"/>
                </mxCell>
                <mxCell id="137" value="&lt;div style=&quot;background-color: rgb(255, 255, 255); font-family: &amp;quot;Input Mono&amp;quot;, &amp;quot;Fira Code&amp;quot;, monospace, Menlo, Monaco, &amp;quot;Courier New&amp;quot;, monospace; line-height: 18px;&quot;&gt;&lt;div style=&quot;line-height: 18px;&quot;&gt;&lt;div style=&quot;line-height: 18px;&quot;&gt;&lt;font color=&quot;#001080&quot;&gt;async action:&amp;nbsp;&lt;/font&gt;&lt;/div&gt;&lt;div style=&quot;line-height: 18px;&quot;&gt;&lt;span style=&quot;&quot;&gt;fetchSelectOptionsDispatch&lt;/span&gt;&lt;/div&gt;&lt;/div&gt;&lt;/div&gt;&lt;div style=&quot;background-color: rgb(255, 255, 255); font-family: &amp;quot;Input Mono&amp;quot;, &amp;quot;Fira Code&amp;quot;, monospace, Menlo, Monaco, &amp;quot;Courier New&amp;quot;, monospace; line-height: 18px;&quot;&gt;&lt;font color=&quot;#001080&quot;&gt;获取select组件可选的数据&lt;/font&gt;&lt;/div&gt;" style="rounded=0;whiteSpace=wrap;html=1;" parent="1" vertex="1">
                    <mxGeometry x="350" y="375" width="200" height="70" as="geometry"/>
                </mxCell>
                <mxCell id="139" value="&lt;div style=&quot;background-color: rgb(255, 255, 255); font-family: &amp;quot;Input Mono&amp;quot;, &amp;quot;Fira Code&amp;quot;, monospace, Menlo, Monaco, &amp;quot;Courier New&amp;quot;, monospace; line-height: 18px;&quot;&gt;&lt;div style=&quot;line-height: 18px;&quot;&gt;&lt;div style=&quot;line-height: 18px;&quot;&gt;&lt;font color=&quot;#001080&quot;&gt;async action:&amp;nbsp;&lt;/font&gt;&lt;/div&gt;&lt;div style=&quot;line-height: 18px;&quot;&gt;&lt;div style=&quot;line-height: 18px;&quot;&gt;fetchChartDataById&lt;/div&gt;&lt;/div&gt;&lt;/div&gt;&lt;/div&gt;&lt;div style=&quot;background-color: rgb(255, 255, 255); font-family: &amp;quot;Input Mono&amp;quot;, &amp;quot;Fira Code&amp;quot;, monospace, Menlo, Monaco, &amp;quot;Courier New&amp;quot;, monospace; line-height: 18px;&quot;&gt;&lt;font color=&quot;#001080&quot;&gt;根据选择数据源ID,&lt;/font&gt;&lt;/div&gt;&lt;div style=&quot;background-color: rgb(255, 255, 255); font-family: &amp;quot;Input Mono&amp;quot;, &amp;quot;Fira Code&amp;quot;, monospace, Menlo, Monaco, &amp;quot;Courier New&amp;quot;, monospace; line-height: 18px;&quot;&gt;&lt;font color=&quot;#001080&quot;&gt;获取图表完整数据&lt;/font&gt;&lt;/div&gt;" style="rounded=0;whiteSpace=wrap;html=1;" parent="1" vertex="1">
                    <mxGeometry x="347.5" y="520" width="200" height="80" as="geometry"/>
                </mxCell>
                <mxCell id="144" style="edgeStyle=none;html=1;entryX=1;entryY=0.5;entryDx=0;entryDy=0;" parent="1" source="143" target="137" edge="1">
                    <mxGeometry relative="1" as="geometry">
                        <Array as="points">
                            <mxPoint x="640" y="250"/>
                            <mxPoint x="640" y="410"/>
                        </Array>
                    </mxGeometry>
                </mxCell>
                <mxCell id="158" value="1" style="edgeLabel;html=1;align=center;verticalAlign=middle;resizable=0;points=[];" parent="144" vertex="1" connectable="0">
                    <mxGeometry x="-0.8525" y="-3" relative="1" as="geometry">
                        <mxPoint x="6" y="-3" as="offset"/>
                    </mxGeometry>
                </mxCell>
                <mxCell id="143" value="生命周期: 初始化, &lt;br&gt;获取select组件数据" style="rounded=0;whiteSpace=wrap;html=1;" parent="1" vertex="1">
                    <mxGeometry x="320" y="230" width="240" height="40" as="geometry"/>
                </mxCell>
                <mxCell id="150" value="" style="rounded=0;whiteSpace=wrap;html=1;" parent="1" vertex="1">
                    <mxGeometry x="770" y="370" width="210" height="100" as="geometry"/>
                </mxCell>
                <mxCell id="149" value="select组件: &lt;br&gt;下拉选择数据源&lt;br&gt;(可重新选择数据)" style="rounded=0;whiteSpace=wrap;html=1;" parent="1" vertex="1">
                    <mxGeometry x="800" y="380" width="120" height="50" as="geometry"/>
                </mxCell>
                <mxCell id="19" value="数据源1" style="rounded=0;whiteSpace=wrap;html=1;" parent="1" vertex="1">
                    <mxGeometry x="800" y="430" width="120" height="30" as="geometry"/>
                </mxCell>
                <mxCell id="151" value="" style="endArrow=classic;html=1;entryX=1;entryY=0.75;entryDx=0;entryDy=0;exitX=0;exitY=0.5;exitDx=0;exitDy=0;" parent="1" source="149" target="139" edge="1">
                    <mxGeometry width="50" height="50" relative="1" as="geometry">
                        <mxPoint x="729.2893218813452" y="455" as="sourcePoint"/>
                        <mxPoint x="729.2893218813452" y="405" as="targetPoint"/>
                    </mxGeometry>
                </mxCell>
                <mxCell id="155" value="数据源1" style="rounded=0;whiteSpace=wrap;html=1;" parent="1" vertex="1">
                    <mxGeometry x="110" y="340" width="120" height="30" as="geometry"/>
                </mxCell>
                <mxCell id="167" value="" style="rounded=0;whiteSpace=wrap;html=1;" parent="1" vertex="1">
                    <mxGeometry x="730" y="-20" width="710" height="180" as="geometry"/>
                </mxCell>
                <mxCell id="117" value="&lt;div style=&quot;color: rgb(59, 59, 59); background-color: rgb(255, 255, 255); font-family: &amp;quot;Input Mono&amp;quot;, &amp;quot;Fira Code&amp;quot;, monospace, Menlo, Monaco, &amp;quot;Courier New&amp;quot;, monospace; line-height: 18px;&quot;&gt;&lt;div style=&quot;line-height: 18px;&quot;&gt;&lt;span style=&quot;color: #001080;&quot;&gt;allPresetChartConfig&lt;/span&gt;&lt;/div&gt;&lt;/div&gt;&lt;div style=&quot;color: rgb(59, 59, 59); background-color: rgb(255, 255, 255); font-family: &amp;quot;Input Mono&amp;quot;, &amp;quot;Fira Code&amp;quot;, monospace, Menlo, Monaco, &amp;quot;Courier New&amp;quot;, monospace; line-height: 18px;&quot;&gt;&lt;span style=&quot;color: rgb(0, 16, 128);&quot;&gt;全部预设图表配置列表&lt;/span&gt;&lt;br&gt;&lt;/div&gt;" style="rounded=0;whiteSpace=wrap;html=1;" parent="1" vertex="1">
                    <mxGeometry x="1160" y="30" width="160" height="45" as="geometry"/>
                </mxCell>
                <mxCell id="118" value="&lt;div style=&quot;color: rgb(59, 59, 59); background-color: rgb(255, 255, 255); font-family: &amp;quot;Input Mono&amp;quot;, &amp;quot;Fira Code&amp;quot;, monospace, Menlo, Monaco, &amp;quot;Courier New&amp;quot;, monospace; line-height: 18px;&quot;&gt;&lt;div style=&quot;line-height: 18px;&quot;&gt;&lt;div style=&quot;color: rgb(0, 0, 0); line-height: 18px;&quot;&gt;availablePresetChartConfig&lt;/div&gt;&lt;/div&gt;&lt;/div&gt;&lt;div style=&quot;color: rgb(59, 59, 59); background-color: rgb(255, 255, 255); font-family: &amp;quot;Input Mono&amp;quot;, &amp;quot;Fira Code&amp;quot;, monospace, Menlo, Monaco, &amp;quot;Courier New&amp;quot;, monospace; line-height: 18px;&quot;&gt;&lt;span style=&quot;color: rgb(0, 16, 128);&quot;&gt;当前选择的数据源, 所支持的图表配置列表&lt;/span&gt;&lt;br&gt;&lt;/div&gt;" style="rounded=0;whiteSpace=wrap;html=1;" parent="1" vertex="1">
                    <mxGeometry x="1160" y="97.5" width="260" height="45" as="geometry"/>
                </mxCell>
                <mxCell id="127" value="5" style="edgeStyle=none;html=1;entryX=0;entryY=0.5;entryDx=0;entryDy=0;" parent="1" source="121" target="118" edge="1">
                    <mxGeometry relative="1" as="geometry"/>
                </mxCell>
                <mxCell id="121" value="&lt;div style=&quot;color: rgb(59, 59, 59); background-color: rgb(255, 255, 255); font-family: &amp;quot;Input Mono&amp;quot;, &amp;quot;Fira Code&amp;quot;, monospace, Menlo, Monaco, &amp;quot;Courier New&amp;quot;, monospace; line-height: 18px;&quot;&gt;&lt;div style=&quot;line-height: 18px;&quot;&gt;&lt;div style=&quot;color: rgb(0, 0, 0); line-height: 18px;&quot;&gt;&lt;div style=&quot;line-height: 18px;&quot;&gt;setAvailablePresetChartConfigByType(chartType)&lt;/div&gt;&lt;/div&gt;&lt;/div&gt;&lt;/div&gt;&lt;div style=&quot;background-color: rgb(255, 255, 255); font-family: &amp;quot;Input Mono&amp;quot;, &amp;quot;Fira Code&amp;quot;, monospace, Menlo, Monaco, &amp;quot;Courier New&amp;quot;, monospace; line-height: 18px;&quot;&gt;&lt;font color=&quot;#001080&quot;&gt;传入需要的图表类型, 返回对应类型图表预设&lt;/font&gt;&lt;/div&gt;" style="rounded=0;whiteSpace=wrap;html=1;" parent="1" vertex="1">
                    <mxGeometry x="760" y="97.5" width="340" height="45" as="geometry"/>
                </mxCell>
                <mxCell id="126" style="edgeStyle=none;html=1;entryX=0;entryY=0.5;entryDx=0;entryDy=0;" parent="1" source="124" target="117" edge="1">
                    <mxGeometry relative="1" as="geometry"/>
                </mxCell>
                <mxCell id="124" value="&lt;div style=&quot;background-color: rgb(255, 255, 255); font-family: &amp;quot;Input Mono&amp;quot;, &amp;quot;Fira Code&amp;quot;, monospace, Menlo, Monaco, &amp;quot;Courier New&amp;quot;, monospace; line-height: 18px;&quot;&gt;&lt;div style=&quot;line-height: 18px;&quot;&gt;&lt;font color=&quot;#001080&quot;&gt;组件初始化时,&lt;/font&gt;&lt;/div&gt;&lt;div style=&quot;line-height: 18px;&quot;&gt;&lt;font color=&quot;#001080&quot;&gt;懒加载全部配置数据&lt;/font&gt;&lt;/div&gt;&lt;/div&gt;" style="rounded=0;whiteSpace=wrap;html=1;" parent="1" vertex="1">
                    <mxGeometry x="760" y="30" width="160" height="45" as="geometry"/>
                </mxCell>
                <mxCell id="135" style="edgeStyle=none;html=1;" parent="1" source="118" edge="1">
                    <mxGeometry relative="1" as="geometry">
                        <Array as="points">
                            <mxPoint x="1290" y="393"/>
                        </Array>
                        <mxPoint x="1000" y="393" as="targetPoint"/>
                    </mxGeometry>
                </mxCell>
                <mxCell id="162" value="6" style="edgeLabel;html=1;align=center;verticalAlign=middle;resizable=0;points=[];" parent="135" vertex="1" connectable="0">
                    <mxGeometry x="-0.8837" y="2" relative="1" as="geometry">
                        <mxPoint x="-2" y="26" as="offset"/>
                    </mxGeometry>
                </mxCell>
                <mxCell id="168" value="图表选择逻辑" style="rounded=0;whiteSpace=wrap;html=1;" parent="1" vertex="1">
                    <mxGeometry x="730" y="-20" width="120" height="40" as="geometry"/>
                </mxCell>
                <mxCell id="169" value="" style="rounded=0;whiteSpace=wrap;html=1;" parent="1" vertex="1">
                    <mxGeometry x="1450" y="-20" width="900" height="180" as="geometry"/>
                </mxCell>
                <mxCell id="170" value="图表配置逻辑" style="rounded=0;whiteSpace=wrap;html=1;" parent="1" vertex="1">
                    <mxGeometry x="1450" y="-20" width="120" height="40" as="geometry"/>
                </mxCell>
                <mxCell id="174" style="edgeStyle=none;html=1;entryX=0;entryY=0.5;entryDx=0;entryDy=0;" parent="1" source="171" target="173" edge="1">
                    <mxGeometry relative="1" as="geometry"/>
                </mxCell>
                <mxCell id="171" value="&lt;div&gt;根据当前选择的预设,&lt;/div&gt;&lt;div&gt;结合上当前图表类型支持的&lt;/div&gt;&lt;div&gt;所有可配置项&lt;/div&gt;" style="rhombus;whiteSpace=wrap;html=1;fontFamily=Helvetica;fontSize=12;fontColor=default;align=center;strokeColor=default;fillColor=default;" parent="1" vertex="1">
                    <mxGeometry x="1670" y="19" width="210" height="70" as="geometry"/>
                </mxCell>
                <mxCell id="172" style="edgeStyle=none;html=1;entryX=0;entryY=0.5;entryDx=0;entryDy=0;" parent="1" source="58" target="198" edge="1">
                    <mxGeometry relative="1" as="geometry">
                        <Array as="points">
                            <mxPoint x="1470" y="510"/>
                            <mxPoint x="1470" y="55"/>
                        </Array>
                    </mxGeometry>
                </mxCell>
                <mxCell id="185" value="7 点击一个预设, 进入图表配置页面" style="edgeLabel;html=1;align=center;verticalAlign=middle;resizable=0;points=[];" parent="172" vertex="1" connectable="0">
                    <mxGeometry x="-0.8959" relative="1" as="geometry">
                        <mxPoint x="138" as="offset"/>
                    </mxGeometry>
                </mxCell>
                <mxCell id="173" value="chartFormConfig" style="rounded=0;whiteSpace=wrap;html=1;" parent="1" vertex="1">
                    <mxGeometry x="1900" y="34" width="130" height="40" as="geometry"/>
                </mxCell>
                <mxCell id="177" value="&lt;b&gt;设计思路&lt;/b&gt;&lt;br&gt;由于会在用户会在三个组件之间切换, 切换后组件内数据会被销毁, 因此需要组件之外的位置保存组件状态和数据.&amp;nbsp;&lt;br&gt;&lt;br&gt;目前需要缓存的状态数据有&lt;br&gt;&lt;span style=&quot;white-space: pre;&quot;&gt;&#9;&lt;/span&gt;1. 异步请求数据, 比如当前图表数据源(&lt;span style=&quot;color: rgb(0, 16, 128); font-family: &amp;quot;Input Mono&amp;quot;, &amp;quot;Fira Code&amp;quot;, monospace, Menlo, Monaco, &amp;quot;Courier New&amp;quot;, monospace; text-align: center; background-color: rgb(255, 255, 255);&quot;&gt;currentChartData&lt;/span&gt;)&lt;br&gt;&lt;span style=&quot;white-space: pre;&quot;&gt;&#9;&lt;/span&gt;2. 逻辑处理中生成的数据,&amp;nbsp; 比如&lt;br&gt;&lt;span style=&quot;&quot;&gt;&#9;&lt;/span&gt;&lt;span style=&quot;white-space: pre;&quot;&gt;&#9;&lt;span style=&quot;white-space: pre;&quot;&gt;&#9;&lt;/span&gt;&lt;/span&gt;从项目静态资源中懒加载的图表配置数据(allPresetChartConfig)&lt;br&gt;&lt;span style=&quot;&quot;&gt;&#9;&lt;/span&gt;&lt;span style=&quot;white-space: pre;&quot;&gt;&lt;span style=&quot;white-space: pre;&quot;&gt;&#9;&lt;/span&gt;&#9;&lt;/span&gt;当前可以展示的图表配置数据(availablePresetChartConfig)&lt;br&gt;&lt;span style=&quot;white-space: pre;&quot;&gt;&#9;&lt;/span&gt;&lt;span style=&quot;white-space: pre;&quot;&gt;&#9;&lt;/span&gt;&lt;br&gt;&lt;br&gt;针对当前需求, 有两个合理的数据存储方式: &lt;br&gt;1. redux状态管理器&lt;br&gt;2. Context.provide 状态上下文&lt;br&gt;&lt;br&gt;由于图表配置数据中存在函数, 不可被序列化, 无法在redux等状态管理器中存储, &lt;br&gt;因此选择:&lt;br&gt;1. 异步请求放在redux store中&lt;br&gt;2. 图表数据预设, 放在Context.provider中" style="rounded=0;whiteSpace=wrap;html=1;align=left;" parent="1" vertex="1">
                    <mxGeometry x="-540" y="200" width="500" height="610" as="geometry"/>
                </mxCell>
                <mxCell id="163" value="" style="rounded=0;whiteSpace=wrap;html=1;" parent="1" vertex="1">
                    <mxGeometry x="740" y="790" width="270" height="140" as="geometry"/>
                </mxCell>
                <mxCell id="164" value="展示的每个图表, 由两部分的数据组成:" style="text;html=1;strokeColor=none;fillColor=none;align=center;verticalAlign=middle;whiteSpace=wrap;rounded=0;" parent="1" vertex="1">
                    <mxGeometry x="763.75" y="790" width="212.5" height="30" as="geometry"/>
                </mxCell>
                <mxCell id="165" value="&lt;span style=&quot;color: rgb(0, 16, 128); font-family: &amp;quot;Input Mono&amp;quot;, &amp;quot;Fira Code&amp;quot;, monospace, Menlo, Monaco, &amp;quot;Courier New&amp;quot;, monospace; background-color: rgb(255, 255, 255);&quot;&gt;currentChartData&lt;/span&gt;&lt;br&gt;数据源: 通过select组件选择的数据" style="rounded=0;whiteSpace=wrap;html=1;" parent="1" vertex="1">
                    <mxGeometry x="750" y="820" width="240" height="40" as="geometry"/>
                </mxCell>
                <mxCell id="166" value="&lt;span style=&quot;font-family: &amp;quot;Input Mono&amp;quot;, &amp;quot;Fira Code&amp;quot;, monospace, Menlo, Monaco, &amp;quot;Courier New&amp;quot;, monospace; background-color: rgb(255, 255, 255);&quot;&gt;availablePresetChartConfig&lt;br&gt;&lt;/span&gt;图表预设: 根据数据源的&lt;span style=&quot;background-color: rgb(255, 255, 255); font-family: &amp;quot;Input Mono&amp;quot;, &amp;quot;Fira Code&amp;quot;, monospace, Menlo, Monaco, &amp;quot;Courier New&amp;quot;, monospace;&quot;&gt;chartType字段,&lt;br&gt;过滤出的图表预设&lt;br&gt;&lt;/span&gt;" style="rounded=0;whiteSpace=wrap;html=1;" parent="1" vertex="1">
                    <mxGeometry x="750" y="870" width="240" height="50" as="geometry"/>
                </mxCell>
                <mxCell id="179" style="edgeStyle=none;html=1;entryX=0;entryY=0.5;entryDx=0;entryDy=0;" parent="1" source="30" target="121" edge="1">
                    <mxGeometry relative="1" as="geometry">
                        <Array as="points">
                            <mxPoint x="660" y="490"/>
                            <mxPoint x="660" y="120"/>
                        </Array>
                    </mxGeometry>
                </mxCell>
                <mxCell id="180" value="4" style="edgeLabel;html=1;align=center;verticalAlign=middle;resizable=0;points=[];" parent="179" vertex="1" connectable="0">
                    <mxGeometry x="-0.6982" y="-3" relative="1" as="geometry">
                        <mxPoint as="offset"/>
                    </mxGeometry>
                </mxCell>
                <mxCell id="181" style="edgeStyle=none;html=1;entryX=-0.006;entryY=0.366;entryDx=0;entryDy=0;entryPerimeter=0;" parent="1" source="30" target="70" edge="1">
                    <mxGeometry relative="1" as="geometry"/>
                </mxCell>
                <mxCell id="192" style="edgeStyle=none;html=1;entryX=0.5;entryY=1;entryDx=0;entryDy=0;" parent="1" source="188" target="171" edge="1">
                    <mxGeometry relative="1" as="geometry"/>
                </mxCell>
                <mxCell id="188" value="&lt;div style=&quot;text-align: start;&quot;&gt;xxxAllConfig&lt;br&gt;&lt;/div&gt;&lt;div style=&quot;text-align: start;&quot;&gt;当前图表类型下, 所有可用配置项&lt;/div&gt;" style="rounded=0;whiteSpace=wrap;html=1;" parent="1" vertex="1">
                    <mxGeometry x="1679.38" y="106.5" width="191.25" height="35" as="geometry"/>
                </mxCell>
                <mxCell id="194" value="currentChartConfigByFotm" style="rounded=0;whiteSpace=wrap;html=1;" parent="1" vertex="1">
                    <mxGeometry x="2120" y="99" width="169" height="40" as="geometry"/>
                </mxCell>
                <mxCell id="201" style="edgeStyle=none;html=1;entryX=0;entryY=0.5;entryDx=0;entryDy=0;" parent="1" source="198" target="171" edge="1">
                    <mxGeometry relative="1" as="geometry"/>
                </mxCell>
                <mxCell id="198" value="currentChartConfigByPreset" style="rounded=0;whiteSpace=wrap;html=1;" parent="1" vertex="1">
                    <mxGeometry x="1490" y="35" width="160" height="40" as="geometry"/>
                </mxCell>
                <mxCell id="202" value="" style="rounded=0;whiteSpace=wrap;html=1;" parent="1" vertex="1">
                    <mxGeometry x="40" y="200" width="580" height="520" as="geometry"/>
                </mxCell>
                <mxCell id="203" value="第一步 数据选择" style="rounded=0;whiteSpace=wrap;html=1;" parent="1" vertex="1">
                    <mxGeometry x="40" y="200" width="130" height="40" as="geometry"/>
                </mxCell>
                <mxCell id="204" value="" style="rounded=0;whiteSpace=wrap;html=1;" parent="1" vertex="1">
                    <mxGeometry x="320" y="280" width="250" height="410" as="geometry"/>
                </mxCell>
                <mxCell id="205" value="Store:&amp;nbsp;&lt;br&gt;&lt;span style=&quot;color: rgb(163, 21, 21); background-color: rgb(255, 255, 255); font-family: &amp;quot;Input Mono&amp;quot;, &amp;quot;Fira Code&amp;quot;, monospace, Menlo, Monaco, &amp;quot;Courier New&amp;quot;, monospace;&quot;&gt;view/chart/selectData&lt;/span&gt;" style="text;html=1;strokeColor=none;fillColor=none;align=center;verticalAlign=middle;whiteSpace=wrap;rounded=0;" parent="1" vertex="1">
                    <mxGeometry x="345" y="280" width="230" height="50" as="geometry"/>
                </mxCell>
                <mxCell id="206" value="&lt;div style=&quot;color: rgb(59, 59, 59); background-color: rgb(255, 255, 255); font-family: &amp;quot;Input Mono&amp;quot;, &amp;quot;Fira Code&amp;quot;, monospace, Menlo, Monaco, &amp;quot;Courier New&amp;quot;, monospace; line-height: 18px;&quot;&gt;&lt;div style=&quot;color: rgb(0, 0, 0); line-height: 18px;&quot;&gt;selectedDataOptions&lt;/div&gt;&lt;/div&gt;&lt;div style=&quot;color: rgb(59, 59, 59); background-color: rgb(255, 255, 255); font-family: &amp;quot;Input Mono&amp;quot;, &amp;quot;Fira Code&amp;quot;, monospace, Menlo, Monaco, &amp;quot;Courier New&amp;quot;, monospace; line-height: 18px;&quot;&gt;&lt;span style=&quot;color: rgb(0, 16, 128);&quot;&gt;可选数据源索引列表&lt;/span&gt;&lt;span style=&quot;color: rgb(0, 16, 128);&quot;&gt;&lt;br&gt;&lt;/span&gt;&lt;/div&gt;" style="rounded=0;whiteSpace=wrap;html=1;" parent="1" vertex="1">
                    <mxGeometry x="350" y="330" width="195" height="45" as="geometry"/>
                </mxCell>
                <mxCell id="207" value="&lt;div style=&quot;background-color: rgb(255, 255, 255); font-family: &amp;quot;Input Mono&amp;quot;, &amp;quot;Fira Code&amp;quot;, monospace, Menlo, Monaco, &amp;quot;Courier New&amp;quot;, monospace; line-height: 18px;&quot;&gt;&lt;div style=&quot;color: rgb(59, 59, 59); line-height: 18px;&quot;&gt;&lt;span style=&quot;color: #001080;&quot;&gt;currentChartData&lt;/span&gt;&lt;/div&gt;&lt;/div&gt;&lt;div style=&quot;background-color: rgb(255, 255, 255); font-family: &amp;quot;Input Mono&amp;quot;, &amp;quot;Fira Code&amp;quot;, monospace, Menlo, Monaco, &amp;quot;Courier New&amp;quot;, monospace; line-height: 18px;&quot;&gt;&lt;font color=&quot;#001080&quot;&gt;当前选中数据源完整数据&lt;/font&gt;&lt;/div&gt;" style="rounded=0;whiteSpace=wrap;html=1;" parent="1" vertex="1">
                    <mxGeometry x="347.5" y="475" width="202.5" height="45" as="geometry"/>
                </mxCell>
                <mxCell id="208" value="&lt;div style=&quot;background-color: rgb(255, 255, 255); font-family: &amp;quot;Input Mono&amp;quot;, &amp;quot;Fira Code&amp;quot;, monospace, Menlo, Monaco, &amp;quot;Courier New&amp;quot;, monospace; line-height: 18px;&quot;&gt;&lt;div style=&quot;color: rgb(59, 59, 59); line-height: 18px;&quot;&gt;&lt;div style=&quot;line-height: 18px;&quot;&gt;&lt;span style=&quot;color: #001080;&quot;&gt;currentChartId&lt;/span&gt;&lt;/div&gt;&lt;/div&gt;&lt;/div&gt;&lt;div style=&quot;background-color: rgb(255, 255, 255); font-family: &amp;quot;Input Mono&amp;quot;, &amp;quot;Fira Code&amp;quot;, monospace, Menlo, Monaco, &amp;quot;Courier New&amp;quot;, monospace; line-height: 18px;&quot;&gt;&lt;font color=&quot;#001080&quot;&gt;当前选中数据源的id&lt;/font&gt;&lt;/div&gt;" style="rounded=0;whiteSpace=wrap;html=1;" parent="1" vertex="1">
                    <mxGeometry x="342.5" y="630" width="205" height="50" as="geometry"/>
                </mxCell>
                <mxCell id="209" value="" style="rounded=0;whiteSpace=wrap;html=1;" parent="1" vertex="1">
                    <mxGeometry x="750" y="210" width="300" height="520" as="geometry"/>
                </mxCell>
                <mxCell id="210" value="第二步 图表选择" style="rounded=0;whiteSpace=wrap;html=1;" parent="1" vertex="1">
                    <mxGeometry x="750" y="210" width="120" height="40" as="geometry"/>
                </mxCell>
                <mxCell id="211" value="" style="rounded=0;whiteSpace=wrap;html=1;fontSize=12;" parent="1" vertex="1">
                    <mxGeometry x="760" y="360" width="240" height="344.5" as="geometry"/>
                </mxCell>
                <mxCell id="212" value="折线图预设1" style="rounded=0;whiteSpace=wrap;html=1;" parent="1" vertex="1">
                    <mxGeometry x="770" y="480" width="100" height="60" as="geometry"/>
                </mxCell>
                <mxCell id="213" value="折线图预设2" style="rounded=0;whiteSpace=wrap;html=1;" parent="1" vertex="1">
                    <mxGeometry x="880" y="480" width="100" height="60" as="geometry"/>
                </mxCell>
                <mxCell id="214" value="面积图预设1" style="rounded=0;whiteSpace=wrap;html=1;" parent="1" vertex="1">
                    <mxGeometry x="770" y="545.5" width="100" height="60" as="geometry"/>
                </mxCell>
                <mxCell id="215" value="面积图预设2" style="rounded=0;whiteSpace=wrap;html=1;" parent="1" vertex="1">
                    <mxGeometry x="880" y="545.5" width="100" height="60" as="geometry"/>
                </mxCell>
                <mxCell id="216" value="......" style="rounded=0;whiteSpace=wrap;html=1;" parent="1" vertex="1">
                    <mxGeometry x="770" y="615.5" width="100" height="60" as="geometry"/>
                </mxCell>
                <mxCell id="223" value="点击预设, &lt;br&gt;跳到第三部图表配置" style="text;html=1;strokeColor=none;fillColor=none;align=center;verticalAlign=middle;whiteSpace=wrap;rounded=0;fontSize=12;" parent="1" vertex="1">
                    <mxGeometry x="830" y="675.5" width="130" height="30" as="geometry"/>
                </mxCell>
                <mxCell id="224" value="" style="rounded=0;whiteSpace=wrap;html=1;" parent="1" vertex="1">
                    <mxGeometry x="70" y="270" width="220" height="430" as="geometry"/>
                </mxCell>
                <mxCell id="225" style="edgeStyle=none;html=1;exitX=1;exitY=0.5;exitDx=0;exitDy=0;entryX=0;entryY=0.5;entryDx=0;entryDy=0;" parent="1" source="227" target="240" edge="1">
                    <mxGeometry relative="1" as="geometry"/>
                </mxCell>
                <mxCell id="226" value="3" style="edgeLabel;html=1;align=center;verticalAlign=middle;resizable=0;points=[];" parent="225" vertex="1" connectable="0">
                    <mxGeometry x="0.1158" relative="1" as="geometry">
                        <mxPoint as="offset"/>
                    </mxGeometry>
                </mxCell>
                <mxCell id="227" value="" style="rounded=0;whiteSpace=wrap;html=1;" parent="1" vertex="1">
                    <mxGeometry x="100" y="290" width="150" height="190" as="geometry"/>
                </mxCell>
                <mxCell id="228" value="数据源2" style="rounded=0;whiteSpace=wrap;html=1;" parent="1" vertex="1">
                    <mxGeometry x="110" y="370" width="120" height="30" as="geometry"/>
                </mxCell>
                <mxCell id="229" value="数据源3" style="rounded=0;whiteSpace=wrap;html=1;" parent="1" vertex="1">
                    <mxGeometry x="110" y="400" width="120" height="30" as="geometry"/>
                </mxCell>
                <mxCell id="230" value="......" style="rounded=0;whiteSpace=wrap;html=1;" parent="1" vertex="1">
                    <mxGeometry x="110" y="430" width="120" height="30" as="geometry"/>
                </mxCell>
                <mxCell id="231" value="select组件: &lt;br&gt;下拉选择数据源" style="rounded=0;whiteSpace=wrap;html=1;" parent="1" vertex="1">
                    <mxGeometry x="110" y="310" width="120" height="30" as="geometry"/>
                </mxCell>
                <mxCell id="232" style="edgeStyle=none;html=1;entryX=1;entryY=0.25;entryDx=0;entryDy=0;" parent="1" source="206" target="227" edge="1">
                    <mxGeometry relative="1" as="geometry"/>
                </mxCell>
                <mxCell id="233" value="2" style="edgeLabel;html=1;align=center;verticalAlign=middle;resizable=0;points=[];" parent="232" vertex="1" connectable="0">
                    <mxGeometry x="-0.1148" y="1" relative="1" as="geometry">
                        <mxPoint as="offset"/>
                    </mxGeometry>
                </mxCell>
                <mxCell id="234" value="" style="rounded=0;whiteSpace=wrap;html=1;" parent="1" vertex="1">
                    <mxGeometry x="90" y="510" width="190" height="150" as="geometry"/>
                </mxCell>
                <mxCell id="235" value="使用表格展示: 选中的数据源" style="rounded=0;whiteSpace=wrap;html=1;" parent="1" vertex="1">
                    <mxGeometry x="100" y="530" width="170" height="40" as="geometry"/>
                </mxCell>
                <mxCell id="236" value="" style="rounded=0;whiteSpace=wrap;html=1;" parent="1" vertex="1">
                    <mxGeometry x="530" y="-40" width="1900" height="220" as="geometry"/>
                </mxCell>
                <mxCell id="237" style="edgeStyle=none;html=1;exitX=0.5;exitY=0;exitDx=0;exitDy=0;" parent="1" source="238" target="236" edge="1">
                    <mxGeometry relative="1" as="geometry"/>
                </mxCell>
                <mxCell id="238" value="ChartLayout&lt;br&gt;Context.provider" style="rounded=0;whiteSpace=wrap;html=1;" parent="1" vertex="1">
                    <mxGeometry x="530" y="-40" width="120" height="40" as="geometry"/>
                </mxCell>
                <mxCell id="239" value="&lt;div style=&quot;background-color: rgb(255, 255, 255); font-family: &amp;quot;Input Mono&amp;quot;, &amp;quot;Fira Code&amp;quot;, monospace, Menlo, Monaco, &amp;quot;Courier New&amp;quot;, monospace; line-height: 18px;&quot;&gt;&lt;div style=&quot;line-height: 18px;&quot;&gt;&lt;div style=&quot;line-height: 18px;&quot;&gt;&lt;font color=&quot;#001080&quot;&gt;async action:&amp;nbsp;&lt;/font&gt;&lt;/div&gt;&lt;div style=&quot;line-height: 18px;&quot;&gt;&lt;span style=&quot;&quot;&gt;fetchSelectOptionsDispatch&lt;/span&gt;&lt;/div&gt;&lt;/div&gt;&lt;/div&gt;&lt;div style=&quot;background-color: rgb(255, 255, 255); font-family: &amp;quot;Input Mono&amp;quot;, &amp;quot;Fira Code&amp;quot;, monospace, Menlo, Monaco, &amp;quot;Courier New&amp;quot;, monospace; line-height: 18px;&quot;&gt;&lt;font color=&quot;#001080&quot;&gt;获取select组件可选的数据&lt;/font&gt;&lt;/div&gt;" style="rounded=0;whiteSpace=wrap;html=1;" parent="1" vertex="1">
                    <mxGeometry x="350" y="375" width="200" height="70" as="geometry"/>
                </mxCell>
                <mxCell id="240" value="&lt;div style=&quot;background-color: rgb(255, 255, 255); font-family: &amp;quot;Input Mono&amp;quot;, &amp;quot;Fira Code&amp;quot;, monospace, Menlo, Monaco, &amp;quot;Courier New&amp;quot;, monospace; line-height: 18px;&quot;&gt;&lt;div style=&quot;line-height: 18px;&quot;&gt;&lt;div style=&quot;line-height: 18px;&quot;&gt;&lt;font color=&quot;#001080&quot;&gt;async action:&amp;nbsp;&lt;/font&gt;&lt;/div&gt;&lt;div style=&quot;line-height: 18px;&quot;&gt;&lt;div style=&quot;line-height: 18px;&quot;&gt;fetchChartDataById&lt;/div&gt;&lt;/div&gt;&lt;/div&gt;&lt;/div&gt;&lt;div style=&quot;background-color: rgb(255, 255, 255); font-family: &amp;quot;Input Mono&amp;quot;, &amp;quot;Fira Code&amp;quot;, monospace, Menlo, Monaco, &amp;quot;Courier New&amp;quot;, monospace; line-height: 18px;&quot;&gt;&lt;font color=&quot;#001080&quot;&gt;根据选择数据源ID,&lt;/font&gt;&lt;/div&gt;&lt;div style=&quot;background-color: rgb(255, 255, 255); font-family: &amp;quot;Input Mono&amp;quot;, &amp;quot;Fira Code&amp;quot;, monospace, Menlo, Monaco, &amp;quot;Courier New&amp;quot;, monospace; line-height: 18px;&quot;&gt;&lt;font color=&quot;#001080&quot;&gt;获取图表完整数据&lt;/font&gt;&lt;/div&gt;" style="rounded=0;whiteSpace=wrap;html=1;" parent="1" vertex="1">
                    <mxGeometry x="347.5" y="520" width="200" height="80" as="geometry"/>
                </mxCell>
                <mxCell id="241" style="edgeStyle=none;html=1;entryX=1;entryY=0.5;entryDx=0;entryDy=0;" parent="1" source="243" target="239" edge="1">
                    <mxGeometry relative="1" as="geometry">
                        <Array as="points">
                            <mxPoint x="640" y="250"/>
                            <mxPoint x="640" y="410"/>
                        </Array>
                    </mxGeometry>
                </mxCell>
                <mxCell id="242" value="1" style="edgeLabel;html=1;align=center;verticalAlign=middle;resizable=0;points=[];" parent="241" vertex="1" connectable="0">
                    <mxGeometry x="-0.8525" y="-3" relative="1" as="geometry">
                        <mxPoint x="6" y="-3" as="offset"/>
                    </mxGeometry>
                </mxCell>
                <mxCell id="243" value="生命周期: 初始化, &lt;br&gt;获取select组件数据" style="rounded=0;whiteSpace=wrap;html=1;" parent="1" vertex="1">
                    <mxGeometry x="320" y="230" width="240" height="40" as="geometry"/>
                </mxCell>
                <mxCell id="244" value="" style="rounded=0;whiteSpace=wrap;html=1;" parent="1" vertex="1">
                    <mxGeometry x="770" y="370" width="210" height="100" as="geometry"/>
                </mxCell>
                <mxCell id="245" value="select组件: &lt;br&gt;下拉选择数据源&lt;br&gt;(可重新选择数据)" style="rounded=0;whiteSpace=wrap;html=1;" parent="1" vertex="1">
                    <mxGeometry x="800" y="380" width="120" height="50" as="geometry"/>
                </mxCell>
                <mxCell id="246" value="数据源1" style="rounded=0;whiteSpace=wrap;html=1;" parent="1" vertex="1">
                    <mxGeometry x="800" y="430" width="120" height="30" as="geometry"/>
                </mxCell>
                <mxCell id="247" value="" style="endArrow=classic;html=1;entryX=1;entryY=0.75;entryDx=0;entryDy=0;exitX=0;exitY=0.5;exitDx=0;exitDy=0;" parent="1" source="245" target="240" edge="1">
                    <mxGeometry width="50" height="50" relative="1" as="geometry">
                        <mxPoint x="729.2893218813452" y="455" as="sourcePoint"/>
                        <mxPoint x="729.2893218813452" y="405" as="targetPoint"/>
                    </mxGeometry>
                </mxCell>
                <mxCell id="248" value="数据源1" style="rounded=0;whiteSpace=wrap;html=1;" parent="1" vertex="1">
                    <mxGeometry x="110" y="340" width="120" height="30" as="geometry"/>
                </mxCell>
                <mxCell id="249" value="" style="rounded=0;whiteSpace=wrap;html=1;" parent="1" vertex="1">
                    <mxGeometry x="730" y="-20" width="710" height="180" as="geometry"/>
                </mxCell>
                <mxCell id="250" value="&lt;div style=&quot;color: rgb(59, 59, 59); background-color: rgb(255, 255, 255); font-family: &amp;quot;Input Mono&amp;quot;, &amp;quot;Fira Code&amp;quot;, monospace, Menlo, Monaco, &amp;quot;Courier New&amp;quot;, monospace; line-height: 18px;&quot;&gt;&lt;div style=&quot;line-height: 18px;&quot;&gt;&lt;span style=&quot;color: #001080;&quot;&gt;allPresetChartConfig&lt;/span&gt;&lt;/div&gt;&lt;/div&gt;&lt;div style=&quot;color: rgb(59, 59, 59); background-color: rgb(255, 255, 255); font-family: &amp;quot;Input Mono&amp;quot;, &amp;quot;Fira Code&amp;quot;, monospace, Menlo, Monaco, &amp;quot;Courier New&amp;quot;, monospace; line-height: 18px;&quot;&gt;&lt;span style=&quot;color: rgb(0, 16, 128);&quot;&gt;全部预设图表配置列表&lt;/span&gt;&lt;br&gt;&lt;/div&gt;" style="rounded=0;whiteSpace=wrap;html=1;" parent="1" vertex="1">
                    <mxGeometry x="1160" y="30" width="160" height="45" as="geometry"/>
                </mxCell>
                <mxCell id="251" value="&lt;div style=&quot;color: rgb(59, 59, 59); background-color: rgb(255, 255, 255); font-family: &amp;quot;Input Mono&amp;quot;, &amp;quot;Fira Code&amp;quot;, monospace, Menlo, Monaco, &amp;quot;Courier New&amp;quot;, monospace; line-height: 18px;&quot;&gt;&lt;div style=&quot;line-height: 18px;&quot;&gt;&lt;div style=&quot;color: rgb(0, 0, 0); line-height: 18px;&quot;&gt;availablePresetChartConfig&lt;/div&gt;&lt;/div&gt;&lt;/div&gt;&lt;div style=&quot;color: rgb(59, 59, 59); background-color: rgb(255, 255, 255); font-family: &amp;quot;Input Mono&amp;quot;, &amp;quot;Fira Code&amp;quot;, monospace, Menlo, Monaco, &amp;quot;Courier New&amp;quot;, monospace; line-height: 18px;&quot;&gt;&lt;span style=&quot;color: rgb(0, 16, 128);&quot;&gt;当前选择的数据源, 所支持的图表配置列表&lt;/span&gt;&lt;br&gt;&lt;/div&gt;" style="rounded=0;whiteSpace=wrap;html=1;" parent="1" vertex="1">
                    <mxGeometry x="1160" y="97.5" width="260" height="45" as="geometry"/>
                </mxCell>
                <mxCell id="252" value="5" style="edgeStyle=none;html=1;entryX=0;entryY=0.5;entryDx=0;entryDy=0;" parent="1" source="253" target="251" edge="1">
                    <mxGeometry relative="1" as="geometry"/>
                </mxCell>
                <mxCell id="253" value="&lt;div style=&quot;color: rgb(59, 59, 59); background-color: rgb(255, 255, 255); font-family: &amp;quot;Input Mono&amp;quot;, &amp;quot;Fira Code&amp;quot;, monospace, Menlo, Monaco, &amp;quot;Courier New&amp;quot;, monospace; line-height: 18px;&quot;&gt;&lt;div style=&quot;line-height: 18px;&quot;&gt;&lt;div style=&quot;color: rgb(0, 0, 0); line-height: 18px;&quot;&gt;&lt;div style=&quot;line-height: 18px;&quot;&gt;setAvailablePresetChartConfigByType(chartType)&lt;/div&gt;&lt;/div&gt;&lt;/div&gt;&lt;/div&gt;&lt;div style=&quot;background-color: rgb(255, 255, 255); font-family: &amp;quot;Input Mono&amp;quot;, &amp;quot;Fira Code&amp;quot;, monospace, Menlo, Monaco, &amp;quot;Courier New&amp;quot;, monospace; line-height: 18px;&quot;&gt;&lt;font color=&quot;#001080&quot;&gt;传入需要的图表类型, 返回对应类型图表预设&lt;/font&gt;&lt;/div&gt;" style="rounded=0;whiteSpace=wrap;html=1;" parent="1" vertex="1">
                    <mxGeometry x="760" y="97.5" width="340" height="45" as="geometry"/>
                </mxCell>
                <mxCell id="254" style="edgeStyle=none;html=1;entryX=0;entryY=0.5;entryDx=0;entryDy=0;" parent="1" source="255" target="250" edge="1">
                    <mxGeometry relative="1" as="geometry"/>
                </mxCell>
                <mxCell id="255" value="&lt;div style=&quot;background-color: rgb(255, 255, 255); font-family: &amp;quot;Input Mono&amp;quot;, &amp;quot;Fira Code&amp;quot;, monospace, Menlo, Monaco, &amp;quot;Courier New&amp;quot;, monospace; line-height: 18px;&quot;&gt;&lt;div style=&quot;line-height: 18px;&quot;&gt;&lt;font color=&quot;#001080&quot;&gt;组件初始化时,&lt;/font&gt;&lt;/div&gt;&lt;div style=&quot;line-height: 18px;&quot;&gt;&lt;font color=&quot;#001080&quot;&gt;懒加载全部配置数据&lt;/font&gt;&lt;/div&gt;&lt;/div&gt;" style="rounded=0;whiteSpace=wrap;html=1;" parent="1" vertex="1">
                    <mxGeometry x="760" y="30" width="160" height="45" as="geometry"/>
                </mxCell>
                <mxCell id="256" style="edgeStyle=none;html=1;" parent="1" source="251" edge="1">
                    <mxGeometry relative="1" as="geometry">
                        <Array as="points">
                            <mxPoint x="1290" y="393"/>
                        </Array>
                        <mxPoint x="1000" y="393" as="targetPoint"/>
                    </mxGeometry>
                </mxCell>
                <mxCell id="257" value="6" style="edgeLabel;html=1;align=center;verticalAlign=middle;resizable=0;points=[];" parent="256" vertex="1" connectable="0">
                    <mxGeometry x="-0.8837" y="2" relative="1" as="geometry">
                        <mxPoint x="-2" y="26" as="offset"/>
                    </mxGeometry>
                </mxCell>
                <mxCell id="258" value="图表选择逻辑" style="rounded=0;whiteSpace=wrap;html=1;" parent="1" vertex="1">
                    <mxGeometry x="730" y="-20" width="120" height="40" as="geometry"/>
                </mxCell>
                <mxCell id="259" value="" style="rounded=0;whiteSpace=wrap;html=1;" parent="1" vertex="1">
                    <mxGeometry x="1450" y="-20" width="900" height="180" as="geometry"/>
                </mxCell>
                <mxCell id="260" value="图表配置逻辑" style="rounded=0;whiteSpace=wrap;html=1;" parent="1" vertex="1">
                    <mxGeometry x="1450" y="-20" width="120" height="40" as="geometry"/>
                </mxCell>
                <mxCell id="263" style="edgeStyle=none;html=1;entryX=0;entryY=0.5;entryDx=0;entryDy=0;" parent="1" source="213" target="280" edge="1">
                    <mxGeometry relative="1" as="geometry">
                        <Array as="points">
                            <mxPoint x="1470" y="510"/>
                            <mxPoint x="1470" y="55"/>
                        </Array>
                    </mxGeometry>
                </mxCell>
                <mxCell id="264" value="7 点击一个预设, 进入图表配置页面" style="edgeLabel;html=1;align=center;verticalAlign=middle;resizable=0;points=[];" parent="263" vertex="1" connectable="0">
                    <mxGeometry x="-0.8959" relative="1" as="geometry">
                        <mxPoint x="138" as="offset"/>
                    </mxGeometry>
                </mxCell>
                <mxCell id="267" value="&lt;b&gt;设计思路&lt;/b&gt;&lt;br&gt;由于会在用户会在三个组件之间切换, 切换后组件内数据会被销毁, 因此需要组件之外的位置保存组件状态和数据.&amp;nbsp;&lt;br&gt;&lt;br&gt;目前需要缓存的状态数据有&lt;br&gt;&lt;span style=&quot;white-space: pre;&quot;&gt;&#9;&lt;/span&gt;1. 异步请求数据, 比如当前图表数据源(&lt;span style=&quot;color: rgb(0, 16, 128); font-family: &amp;quot;Input Mono&amp;quot;, &amp;quot;Fira Code&amp;quot;, monospace, Menlo, Monaco, &amp;quot;Courier New&amp;quot;, monospace; text-align: center; background-color: rgb(255, 255, 255);&quot;&gt;currentChartData&lt;/span&gt;)&lt;br&gt;&lt;span style=&quot;white-space: pre;&quot;&gt;&#9;&lt;/span&gt;2. 逻辑处理中生成的数据,&amp;nbsp; 比如&lt;br&gt;&lt;span style=&quot;&quot;&gt;&#9;&lt;/span&gt;&lt;span style=&quot;white-space: pre;&quot;&gt;&#9;&lt;span style=&quot;white-space: pre;&quot;&gt;&#9;&lt;/span&gt;&lt;/span&gt;从项目静态资源中懒加载的图表配置数据(allPresetChartConfig)&lt;br&gt;&lt;span style=&quot;&quot;&gt;&#9;&lt;/span&gt;&lt;span style=&quot;white-space: pre;&quot;&gt;&lt;span style=&quot;white-space: pre;&quot;&gt;&#9;&lt;/span&gt;&#9;&lt;/span&gt;当前可以展示的图表配置数据(availablePresetChartConfig)&lt;br&gt;&lt;span style=&quot;white-space: pre;&quot;&gt;&#9;&lt;/span&gt;&lt;span style=&quot;white-space: pre;&quot;&gt;&#9;&lt;/span&gt;&lt;br&gt;&lt;br&gt;针对当前需求, 有两个合理的数据存储方式: &lt;br&gt;1. redux状态管理器&lt;br&gt;2. Context.provide 状态上下文&lt;br&gt;&lt;br&gt;由于图表配置数据中存在函数, 不可被序列化, 无法在redux等状态管理器中存储, &lt;br&gt;因此选择:&lt;br&gt;1. 异步请求放在redux store中&lt;br&gt;2. 图表数据预设, 放在Context.provider中" style="rounded=0;whiteSpace=wrap;html=1;align=left;" parent="1" vertex="1">
                    <mxGeometry x="-540" y="200" width="500" height="610" as="geometry"/>
                </mxCell>
                <mxCell id="268" value="" style="rounded=0;whiteSpace=wrap;html=1;" parent="1" vertex="1">
                    <mxGeometry x="740" y="790" width="270" height="140" as="geometry"/>
                </mxCell>
                <mxCell id="269" value="展示的每个图表, 由两部分的数据组成:" style="text;html=1;strokeColor=none;fillColor=none;align=center;verticalAlign=middle;whiteSpace=wrap;rounded=0;" parent="1" vertex="1">
                    <mxGeometry x="763.75" y="790" width="212.5" height="30" as="geometry"/>
                </mxCell>
                <mxCell id="270" value="&lt;span style=&quot;color: rgb(0, 16, 128); font-family: &amp;quot;Input Mono&amp;quot;, &amp;quot;Fira Code&amp;quot;, monospace, Menlo, Monaco, &amp;quot;Courier New&amp;quot;, monospace; background-color: rgb(255, 255, 255);&quot;&gt;currentChartData&lt;/span&gt;&lt;br&gt;数据源: 通过select组件选择的数据" style="rounded=0;whiteSpace=wrap;html=1;" parent="1" vertex="1">
                    <mxGeometry x="750" y="820" width="240" height="40" as="geometry"/>
                </mxCell>
                <mxCell id="271" value="&lt;span style=&quot;font-family: &amp;quot;Input Mono&amp;quot;, &amp;quot;Fira Code&amp;quot;, monospace, Menlo, Monaco, &amp;quot;Courier New&amp;quot;, monospace; background-color: rgb(255, 255, 255);&quot;&gt;availablePresetChartConfig&lt;br&gt;&lt;/span&gt;图表预设: 根据数据源的&lt;span style=&quot;background-color: rgb(255, 255, 255); font-family: &amp;quot;Input Mono&amp;quot;, &amp;quot;Fira Code&amp;quot;, monospace, Menlo, Monaco, &amp;quot;Courier New&amp;quot;, monospace;&quot;&gt;chartType字段,&lt;br&gt;过滤出的图表预设&lt;br&gt;&lt;/span&gt;" style="rounded=0;whiteSpace=wrap;html=1;" parent="1" vertex="1">
                    <mxGeometry x="750" y="870" width="240" height="50" as="geometry"/>
                </mxCell>
                <mxCell id="272" style="edgeStyle=none;html=1;entryX=0;entryY=0.5;entryDx=0;entryDy=0;" parent="1" source="207" target="253" edge="1">
                    <mxGeometry relative="1" as="geometry">
                        <Array as="points">
                            <mxPoint x="660" y="490"/>
                            <mxPoint x="660" y="120"/>
                        </Array>
                    </mxGeometry>
                </mxCell>
                <mxCell id="273" value="4" style="edgeLabel;html=1;align=center;verticalAlign=middle;resizable=0;points=[];" parent="272" vertex="1" connectable="0">
                    <mxGeometry x="-0.6982" y="-3" relative="1" as="geometry">
                        <mxPoint as="offset"/>
                    </mxGeometry>
                </mxCell>
                <mxCell id="274" style="edgeStyle=none;html=1;entryX=-0.006;entryY=0.366;entryDx=0;entryDy=0;entryPerimeter=0;" parent="1" source="207" target="211" edge="1">
                    <mxGeometry relative="1" as="geometry"/>
                </mxCell>
                <mxCell id="278" value="currentChartConfigByForm" style="rounded=0;whiteSpace=wrap;html=1;" parent="1" vertex="1">
                    <mxGeometry x="1890" y="40" width="249" height="40" as="geometry"/>
                </mxCell>
                <mxCell id="280" value="currentChartConfigByPreset" style="rounded=0;whiteSpace=wrap;html=1;" parent="1" vertex="1">
                    <mxGeometry x="1520" y="35" width="160" height="40" as="geometry"/>
                </mxCell>
                <mxCell id="283" value="" style="rounded=0;whiteSpace=wrap;html=1;" parent="1" vertex="1">
                    <mxGeometry x="40" y="200" width="580" height="520" as="geometry"/>
                </mxCell>
                <mxCell id="284" value="第一步 数据选择" style="rounded=0;whiteSpace=wrap;html=1;" parent="1" vertex="1">
                    <mxGeometry x="40" y="200" width="130" height="40" as="geometry"/>
                </mxCell>
                <mxCell id="285" value="" style="rounded=0;whiteSpace=wrap;html=1;" parent="1" vertex="1">
                    <mxGeometry x="320" y="280" width="250" height="410" as="geometry"/>
                </mxCell>
                <mxCell id="286" value="Store:&amp;nbsp;&lt;br&gt;&lt;span style=&quot;color: rgb(163, 21, 21); background-color: rgb(255, 255, 255); font-family: &amp;quot;Input Mono&amp;quot;, &amp;quot;Fira Code&amp;quot;, monospace, Menlo, Monaco, &amp;quot;Courier New&amp;quot;, monospace;&quot;&gt;view/chart/selectData&lt;/span&gt;" style="text;html=1;strokeColor=none;fillColor=none;align=center;verticalAlign=middle;whiteSpace=wrap;rounded=0;" parent="1" vertex="1">
                    <mxGeometry x="345" y="280" width="230" height="50" as="geometry"/>
                </mxCell>
                <mxCell id="287" value="&lt;div style=&quot;color: rgb(59, 59, 59); background-color: rgb(255, 255, 255); font-family: &amp;quot;Input Mono&amp;quot;, &amp;quot;Fira Code&amp;quot;, monospace, Menlo, Monaco, &amp;quot;Courier New&amp;quot;, monospace; line-height: 18px;&quot;&gt;&lt;div style=&quot;color: rgb(0, 0, 0); line-height: 18px;&quot;&gt;selectedDataOptions&lt;/div&gt;&lt;/div&gt;&lt;div style=&quot;color: rgb(59, 59, 59); background-color: rgb(255, 255, 255); font-family: &amp;quot;Input Mono&amp;quot;, &amp;quot;Fira Code&amp;quot;, monospace, Menlo, Monaco, &amp;quot;Courier New&amp;quot;, monospace; line-height: 18px;&quot;&gt;&lt;span style=&quot;color: rgb(0, 16, 128);&quot;&gt;可选数据源索引列表&lt;/span&gt;&lt;span style=&quot;color: rgb(0, 16, 128);&quot;&gt;&lt;br&gt;&lt;/span&gt;&lt;/div&gt;" style="rounded=0;whiteSpace=wrap;html=1;" parent="1" vertex="1">
                    <mxGeometry x="350" y="330" width="195" height="45" as="geometry"/>
                </mxCell>
                <mxCell id="288" value="&lt;div style=&quot;background-color: rgb(255, 255, 255); font-family: &amp;quot;Input Mono&amp;quot;, &amp;quot;Fira Code&amp;quot;, monospace, Menlo, Monaco, &amp;quot;Courier New&amp;quot;, monospace; line-height: 18px;&quot;&gt;&lt;div style=&quot;color: rgb(59, 59, 59); line-height: 18px;&quot;&gt;&lt;span style=&quot;color: #001080;&quot;&gt;currentChartData&lt;/span&gt;&lt;/div&gt;&lt;/div&gt;&lt;div style=&quot;background-color: rgb(255, 255, 255); font-family: &amp;quot;Input Mono&amp;quot;, &amp;quot;Fira Code&amp;quot;, monospace, Menlo, Monaco, &amp;quot;Courier New&amp;quot;, monospace; line-height: 18px;&quot;&gt;&lt;font color=&quot;#001080&quot;&gt;当前选中数据源完整数据&lt;/font&gt;&lt;/div&gt;" style="rounded=0;whiteSpace=wrap;html=1;" parent="1" vertex="1">
                    <mxGeometry x="347.5" y="475" width="202.5" height="45" as="geometry"/>
                </mxCell>
                <mxCell id="289" value="&lt;div style=&quot;background-color: rgb(255, 255, 255); font-family: &amp;quot;Input Mono&amp;quot;, &amp;quot;Fira Code&amp;quot;, monospace, Menlo, Monaco, &amp;quot;Courier New&amp;quot;, monospace; line-height: 18px;&quot;&gt;&lt;div style=&quot;color: rgb(59, 59, 59); line-height: 18px;&quot;&gt;&lt;div style=&quot;line-height: 18px;&quot;&gt;&lt;span style=&quot;color: #001080;&quot;&gt;currentChartId&lt;/span&gt;&lt;/div&gt;&lt;/div&gt;&lt;/div&gt;&lt;div style=&quot;background-color: rgb(255, 255, 255); font-family: &amp;quot;Input Mono&amp;quot;, &amp;quot;Fira Code&amp;quot;, monospace, Menlo, Monaco, &amp;quot;Courier New&amp;quot;, monospace; line-height: 18px;&quot;&gt;&lt;font color=&quot;#001080&quot;&gt;当前选中数据源的id&lt;/font&gt;&lt;/div&gt;" style="rounded=0;whiteSpace=wrap;html=1;" parent="1" vertex="1">
                    <mxGeometry x="342.5" y="630" width="205" height="50" as="geometry"/>
                </mxCell>
                <mxCell id="290" value="" style="rounded=0;whiteSpace=wrap;html=1;" parent="1" vertex="1">
                    <mxGeometry x="750" y="210" width="300" height="520" as="geometry"/>
                </mxCell>
                <mxCell id="291" value="第二步 图表选择" style="rounded=0;whiteSpace=wrap;html=1;" parent="1" vertex="1">
                    <mxGeometry x="750" y="210" width="120" height="40" as="geometry"/>
                </mxCell>
                <mxCell id="292" value="" style="rounded=0;whiteSpace=wrap;html=1;fontSize=12;" parent="1" vertex="1">
                    <mxGeometry x="760" y="360" width="240" height="344.5" as="geometry"/>
                </mxCell>
                <mxCell id="293" value="折线图预设1" style="rounded=0;whiteSpace=wrap;html=1;" parent="1" vertex="1">
                    <mxGeometry x="770" y="480" width="100" height="60" as="geometry"/>
                </mxCell>
                <mxCell id="294" value="折线图预设2" style="rounded=0;whiteSpace=wrap;html=1;" parent="1" vertex="1">
                    <mxGeometry x="880" y="480" width="100" height="60" as="geometry"/>
                </mxCell>
                <mxCell id="295" value="面积图预设1" style="rounded=0;whiteSpace=wrap;html=1;" parent="1" vertex="1">
                    <mxGeometry x="770" y="545.5" width="100" height="60" as="geometry"/>
                </mxCell>
                <mxCell id="296" value="面积图预设2" style="rounded=0;whiteSpace=wrap;html=1;" parent="1" vertex="1">
                    <mxGeometry x="880" y="545.5" width="100" height="60" as="geometry"/>
                </mxCell>
                <mxCell id="297" value="......" style="rounded=0;whiteSpace=wrap;html=1;" parent="1" vertex="1">
                    <mxGeometry x="770" y="615.5" width="100" height="60" as="geometry"/>
                </mxCell>
                <mxCell id="298" value="" style="rounded=0;whiteSpace=wrap;html=1;" parent="1" vertex="1">
                    <mxGeometry x="1490" y="259.55" width="870" height="570.45" as="geometry"/>
                </mxCell>
                <mxCell id="299" value="第三步 图表配置" style="rounded=0;whiteSpace=wrap;html=1;" parent="1" vertex="1">
                    <mxGeometry x="1490" y="259.54999999999995" width="130" height="40" as="geometry"/>
                </mxCell>
                <mxCell id="300" value="" style="rounded=0;whiteSpace=wrap;html=1;fontSize=12;" parent="1" vertex="1">
                    <mxGeometry x="1720" y="267" width="480" height="400" as="geometry"/>
                </mxCell>
                <mxCell id="301" value="图表展示" style="rounded=0;whiteSpace=wrap;html=1;" parent="1" vertex="1">
                    <mxGeometry x="1750" y="287" width="80" height="253" as="geometry"/>
                </mxCell>
                <mxCell id="302" value="" style="rounded=0;whiteSpace=wrap;html=1;" parent="1" vertex="1">
                    <mxGeometry x="1844.69" y="277" width="340.62" height="290" as="geometry"/>
                </mxCell>
                <mxCell id="303" value="数据源展示" style="rounded=0;whiteSpace=wrap;html=1;" parent="1" vertex="1">
                    <mxGeometry x="1739.38" y="579.55" width="450.62" height="80" as="geometry"/>
                </mxCell>
                <mxCell id="304" value="点击预设, &lt;br&gt;跳到第三部图表配置" style="text;html=1;strokeColor=none;fillColor=none;align=center;verticalAlign=middle;whiteSpace=wrap;rounded=0;fontSize=12;" parent="1" vertex="1">
                    <mxGeometry x="830" y="675.5" width="130" height="30" as="geometry"/>
                </mxCell>
                <mxCell id="305" value="" style="rounded=0;whiteSpace=wrap;html=1;" parent="1" vertex="1">
                    <mxGeometry x="70" y="270" width="220" height="430" as="geometry"/>
                </mxCell>
                <mxCell id="306" style="edgeStyle=none;html=1;exitX=1;exitY=0.5;exitDx=0;exitDy=0;entryX=0;entryY=0.5;entryDx=0;entryDy=0;" parent="1" source="308" target="321" edge="1">
                    <mxGeometry relative="1" as="geometry"/>
                </mxCell>
                <mxCell id="307" value="3" style="edgeLabel;html=1;align=center;verticalAlign=middle;resizable=0;points=[];" parent="306" vertex="1" connectable="0">
                    <mxGeometry x="0.1158" relative="1" as="geometry">
                        <mxPoint as="offset"/>
                    </mxGeometry>
                </mxCell>
                <mxCell id="308" value="" style="rounded=0;whiteSpace=wrap;html=1;" parent="1" vertex="1">
                    <mxGeometry x="100" y="290" width="150" height="190" as="geometry"/>
                </mxCell>
                <mxCell id="309" value="数据源2" style="rounded=0;whiteSpace=wrap;html=1;" parent="1" vertex="1">
                    <mxGeometry x="110" y="370" width="120" height="30" as="geometry"/>
                </mxCell>
                <mxCell id="310" value="数据源3" style="rounded=0;whiteSpace=wrap;html=1;" parent="1" vertex="1">
                    <mxGeometry x="110" y="400" width="120" height="30" as="geometry"/>
                </mxCell>
                <mxCell id="311" value="......" style="rounded=0;whiteSpace=wrap;html=1;" parent="1" vertex="1">
                    <mxGeometry x="110" y="430" width="120" height="30" as="geometry"/>
                </mxCell>
                <mxCell id="312" value="select组件: &lt;br&gt;下拉选择数据源" style="rounded=0;whiteSpace=wrap;html=1;" parent="1" vertex="1">
                    <mxGeometry x="110" y="310" width="120" height="30" as="geometry"/>
                </mxCell>
                <mxCell id="313" style="edgeStyle=none;html=1;entryX=1;entryY=0.25;entryDx=0;entryDy=0;" parent="1" source="287" target="308" edge="1">
                    <mxGeometry relative="1" as="geometry"/>
                </mxCell>
                <mxCell id="314" value="2" style="edgeLabel;html=1;align=center;verticalAlign=middle;resizable=0;points=[];" parent="313" vertex="1" connectable="0">
                    <mxGeometry x="-0.1148" y="1" relative="1" as="geometry">
                        <mxPoint as="offset"/>
                    </mxGeometry>
                </mxCell>
                <mxCell id="315" value="" style="rounded=0;whiteSpace=wrap;html=1;" parent="1" vertex="1">
                    <mxGeometry x="90" y="510" width="190" height="150" as="geometry"/>
                </mxCell>
                <mxCell id="316" value="使用表格展示: 选中的数据源" style="rounded=0;whiteSpace=wrap;html=1;" parent="1" vertex="1">
                    <mxGeometry x="100" y="530" width="170" height="40" as="geometry"/>
                </mxCell>
                <mxCell id="317" value="" style="rounded=0;whiteSpace=wrap;html=1;" parent="1" vertex="1">
                    <mxGeometry x="530" y="-40" width="1900" height="220" as="geometry"/>
                </mxCell>
                <mxCell id="318" style="edgeStyle=none;html=1;exitX=0.5;exitY=0;exitDx=0;exitDy=0;" parent="1" source="319" target="317" edge="1">
                    <mxGeometry relative="1" as="geometry"/>
                </mxCell>
                <mxCell id="319" value="ChartLayout&lt;br&gt;Context.provider" style="rounded=0;whiteSpace=wrap;html=1;" parent="1" vertex="1">
                    <mxGeometry x="530" y="-40" width="120" height="40" as="geometry"/>
                </mxCell>
                <mxCell id="320" value="&lt;div style=&quot;background-color: rgb(255, 255, 255); font-family: &amp;quot;Input Mono&amp;quot;, &amp;quot;Fira Code&amp;quot;, monospace, Menlo, Monaco, &amp;quot;Courier New&amp;quot;, monospace; line-height: 18px;&quot;&gt;&lt;div style=&quot;line-height: 18px;&quot;&gt;&lt;div style=&quot;line-height: 18px;&quot;&gt;&lt;font color=&quot;#001080&quot;&gt;async action:&amp;nbsp;&lt;/font&gt;&lt;/div&gt;&lt;div style=&quot;line-height: 18px;&quot;&gt;&lt;span style=&quot;&quot;&gt;fetchSelectOptionsDispatch&lt;/span&gt;&lt;/div&gt;&lt;/div&gt;&lt;/div&gt;&lt;div style=&quot;background-color: rgb(255, 255, 255); font-family: &amp;quot;Input Mono&amp;quot;, &amp;quot;Fira Code&amp;quot;, monospace, Menlo, Monaco, &amp;quot;Courier New&amp;quot;, monospace; line-height: 18px;&quot;&gt;&lt;font color=&quot;#001080&quot;&gt;获取select组件可选的数据&lt;/font&gt;&lt;/div&gt;" style="rounded=0;whiteSpace=wrap;html=1;" parent="1" vertex="1">
                    <mxGeometry x="350" y="375" width="200" height="70" as="geometry"/>
                </mxCell>
                <mxCell id="321" value="&lt;div style=&quot;background-color: rgb(255, 255, 255); font-family: &amp;quot;Input Mono&amp;quot;, &amp;quot;Fira Code&amp;quot;, monospace, Menlo, Monaco, &amp;quot;Courier New&amp;quot;, monospace; line-height: 18px;&quot;&gt;&lt;div style=&quot;line-height: 18px;&quot;&gt;&lt;div style=&quot;line-height: 18px;&quot;&gt;&lt;font color=&quot;#001080&quot;&gt;async action:&amp;nbsp;&lt;/font&gt;&lt;/div&gt;&lt;div style=&quot;line-height: 18px;&quot;&gt;&lt;div style=&quot;line-height: 18px;&quot;&gt;fetchChartDataById&lt;/div&gt;&lt;/div&gt;&lt;/div&gt;&lt;/div&gt;&lt;div style=&quot;background-color: rgb(255, 255, 255); font-family: &amp;quot;Input Mono&amp;quot;, &amp;quot;Fira Code&amp;quot;, monospace, Menlo, Monaco, &amp;quot;Courier New&amp;quot;, monospace; line-height: 18px;&quot;&gt;&lt;font color=&quot;#001080&quot;&gt;根据选择数据源ID,&lt;/font&gt;&lt;/div&gt;&lt;div style=&quot;background-color: rgb(255, 255, 255); font-family: &amp;quot;Input Mono&amp;quot;, &amp;quot;Fira Code&amp;quot;, monospace, Menlo, Monaco, &amp;quot;Courier New&amp;quot;, monospace; line-height: 18px;&quot;&gt;&lt;font color=&quot;#001080&quot;&gt;获取图表完整数据&lt;/font&gt;&lt;/div&gt;" style="rounded=0;whiteSpace=wrap;html=1;" parent="1" vertex="1">
                    <mxGeometry x="347.5" y="520" width="200" height="80" as="geometry"/>
                </mxCell>
                <mxCell id="322" style="edgeStyle=none;html=1;entryX=1;entryY=0.5;entryDx=0;entryDy=0;" parent="1" source="324" target="320" edge="1">
                    <mxGeometry relative="1" as="geometry">
                        <Array as="points">
                            <mxPoint x="640" y="250"/>
                            <mxPoint x="640" y="410"/>
                        </Array>
                    </mxGeometry>
                </mxCell>
                <mxCell id="323" value="1" style="edgeLabel;html=1;align=center;verticalAlign=middle;resizable=0;points=[];" parent="322" vertex="1" connectable="0">
                    <mxGeometry x="-0.8525" y="-3" relative="1" as="geometry">
                        <mxPoint x="6" y="-3" as="offset"/>
                    </mxGeometry>
                </mxCell>
                <mxCell id="324" value="生命周期: 初始化, &lt;br&gt;获取select组件数据" style="rounded=0;whiteSpace=wrap;html=1;" parent="1" vertex="1">
                    <mxGeometry x="320" y="230" width="240" height="40" as="geometry"/>
                </mxCell>
                <mxCell id="325" value="" style="rounded=0;whiteSpace=wrap;html=1;" parent="1" vertex="1">
                    <mxGeometry x="770" y="370" width="210" height="100" as="geometry"/>
                </mxCell>
                <mxCell id="326" value="select组件: &lt;br&gt;下拉选择数据源&lt;br&gt;(可重新选择数据)" style="rounded=0;whiteSpace=wrap;html=1;" parent="1" vertex="1">
                    <mxGeometry x="800" y="380" width="120" height="50" as="geometry"/>
                </mxCell>
                <mxCell id="327" value="数据源1" style="rounded=0;whiteSpace=wrap;html=1;" parent="1" vertex="1">
                    <mxGeometry x="800" y="430" width="120" height="30" as="geometry"/>
                </mxCell>
                <mxCell id="328" value="" style="endArrow=classic;html=1;entryX=1;entryY=0.75;entryDx=0;entryDy=0;exitX=0;exitY=0.5;exitDx=0;exitDy=0;" parent="1" source="326" target="321" edge="1">
                    <mxGeometry width="50" height="50" relative="1" as="geometry">
                        <mxPoint x="729.2893218813452" y="455" as="sourcePoint"/>
                        <mxPoint x="729.2893218813452" y="405" as="targetPoint"/>
                    </mxGeometry>
                </mxCell>
                <mxCell id="329" value="数据源1" style="rounded=0;whiteSpace=wrap;html=1;" parent="1" vertex="1">
                    <mxGeometry x="110" y="340" width="120" height="30" as="geometry"/>
                </mxCell>
                <mxCell id="330" value="" style="rounded=0;whiteSpace=wrap;html=1;" parent="1" vertex="1">
                    <mxGeometry x="730" y="-20" width="710" height="180" as="geometry"/>
                </mxCell>
                <mxCell id="331" value="&lt;div style=&quot;color: rgb(59, 59, 59); background-color: rgb(255, 255, 255); font-family: &amp;quot;Input Mono&amp;quot;, &amp;quot;Fira Code&amp;quot;, monospace, Menlo, Monaco, &amp;quot;Courier New&amp;quot;, monospace; line-height: 18px;&quot;&gt;&lt;div style=&quot;line-height: 18px;&quot;&gt;&lt;div style=&quot;color: rgb(0, 0, 0); line-height: 18px;&quot;&gt;availablePresetChartConfig&lt;/div&gt;&lt;/div&gt;&lt;/div&gt;&lt;div style=&quot;color: rgb(59, 59, 59); background-color: rgb(255, 255, 255); font-family: &amp;quot;Input Mono&amp;quot;, &amp;quot;Fira Code&amp;quot;, monospace, Menlo, Monaco, &amp;quot;Courier New&amp;quot;, monospace; line-height: 18px;&quot;&gt;&lt;span style=&quot;color: rgb(0, 16, 128);&quot;&gt;当前选择的数据源, 所支持的图表配置列表&lt;/span&gt;&lt;br&gt;&lt;/div&gt;" style="rounded=0;whiteSpace=wrap;html=1;" parent="1" vertex="1">
                    <mxGeometry x="1160" y="97.5" width="260" height="45" as="geometry"/>
                </mxCell>
                <mxCell id="332" value="5" style="edgeStyle=none;html=1;entryX=0;entryY=0.5;entryDx=0;entryDy=0;" parent="1" source="333" target="331" edge="1">
                    <mxGeometry relative="1" as="geometry"/>
                </mxCell>
                <mxCell id="333" value="&lt;div style=&quot;color: rgb(59, 59, 59); background-color: rgb(255, 255, 255); font-family: &amp;quot;Input Mono&amp;quot;, &amp;quot;Fira Code&amp;quot;, monospace, Menlo, Monaco, &amp;quot;Courier New&amp;quot;, monospace; line-height: 18px;&quot;&gt;&lt;div style=&quot;line-height: 18px;&quot;&gt;&lt;div style=&quot;color: rgb(0, 0, 0); line-height: 18px;&quot;&gt;&lt;div style=&quot;line-height: 18px;&quot;&gt;setAvailablePresetChartConfigByType(chartType)&lt;/div&gt;&lt;/div&gt;&lt;/div&gt;&lt;/div&gt;&lt;div style=&quot;background-color: rgb(255, 255, 255); font-family: &amp;quot;Input Mono&amp;quot;, &amp;quot;Fira Code&amp;quot;, monospace, Menlo, Monaco, &amp;quot;Courier New&amp;quot;, monospace; line-height: 18px;&quot;&gt;&lt;font color=&quot;#001080&quot;&gt;传入需要的图表类型, 返回对应类型图表预设&lt;/font&gt;&lt;/div&gt;" style="rounded=0;whiteSpace=wrap;html=1;" parent="1" vertex="1">
                    <mxGeometry x="760" y="97.5" width="340" height="45" as="geometry"/>
                </mxCell>
                <mxCell id="334" style="edgeStyle=none;html=1;entryX=0;entryY=0.5;entryDx=0;entryDy=0;" parent="1" source="335" target="361" edge="1">
                    <mxGeometry relative="1" as="geometry"/>
                </mxCell>
                <mxCell id="335" value="&lt;div style=&quot;background-color: rgb(255, 255, 255); font-family: &amp;quot;Input Mono&amp;quot;, &amp;quot;Fira Code&amp;quot;, monospace, Menlo, Monaco, &amp;quot;Courier New&amp;quot;, monospace; line-height: 18px;&quot;&gt;&lt;div style=&quot;line-height: 18px;&quot;&gt;&lt;font color=&quot;#001080&quot;&gt;组件初始化时,&lt;/font&gt;&lt;/div&gt;&lt;div style=&quot;line-height: 18px;&quot;&gt;&lt;font color=&quot;#001080&quot;&gt;懒加载全部配置数据&lt;/font&gt;&lt;/div&gt;&lt;/div&gt;" style="rounded=0;whiteSpace=wrap;html=1;" parent="1" vertex="1">
                    <mxGeometry x="760" y="30" width="160" height="45" as="geometry"/>
                </mxCell>
                <mxCell id="336" style="edgeStyle=none;html=1;" parent="1" source="331" edge="1">
                    <mxGeometry relative="1" as="geometry">
                        <Array as="points">
                            <mxPoint x="1290" y="393"/>
                        </Array>
                        <mxPoint x="1000" y="393" as="targetPoint"/>
                    </mxGeometry>
                </mxCell>
                <mxCell id="337" value="6" style="edgeLabel;html=1;align=center;verticalAlign=middle;resizable=0;points=[];" parent="336" vertex="1" connectable="0">
                    <mxGeometry x="-0.8837" y="2" relative="1" as="geometry">
                        <mxPoint x="-2" y="26" as="offset"/>
                    </mxGeometry>
                </mxCell>
                <mxCell id="338" value="图表选择逻辑" style="rounded=0;whiteSpace=wrap;html=1;" parent="1" vertex="1">
                    <mxGeometry x="730" y="-20" width="120" height="40" as="geometry"/>
                </mxCell>
                <mxCell id="339" value="" style="rounded=0;whiteSpace=wrap;html=1;" parent="1" vertex="1">
                    <mxGeometry x="1450" y="-20" width="900" height="180" as="geometry"/>
                </mxCell>
                <mxCell id="340" value="图表配置逻辑" style="rounded=0;whiteSpace=wrap;html=1;" parent="1" vertex="1">
                    <mxGeometry x="1450" y="-20" width="120" height="40" as="geometry"/>
                </mxCell>
                <mxCell id="343" style="edgeStyle=none;html=1;entryX=0;entryY=0.5;entryDx=0;entryDy=0;" parent="1" source="294" target="358" edge="1">
                    <mxGeometry relative="1" as="geometry">
                        <Array as="points">
                            <mxPoint x="1470" y="510"/>
                            <mxPoint x="1470" y="120"/>
                        </Array>
                    </mxGeometry>
                </mxCell>
                <mxCell id="344" value="7 点击一个预设, 进入图表配置页面" style="edgeLabel;html=1;align=center;verticalAlign=middle;resizable=0;points=[];" parent="343" vertex="1" connectable="0">
                    <mxGeometry x="-0.8959" relative="1" as="geometry">
                        <mxPoint x="138" as="offset"/>
                    </mxGeometry>
                </mxCell>
                <mxCell id="347" value="&lt;b&gt;设计思路&lt;/b&gt;&lt;br&gt;由于会在用户会在三个组件之间切换, 切换后组件内数据会被销毁, 因此需要组件之外的位置保存组件状态和数据.&amp;nbsp;&lt;br&gt;&lt;br&gt;目前需要缓存的状态数据有&lt;br&gt;&lt;span style=&quot;white-space: pre;&quot;&gt;&#9;&lt;/span&gt;1. 异步请求数据, 比如当前图表数据源(&lt;span style=&quot;color: rgb(0, 16, 128); font-family: &amp;quot;Input Mono&amp;quot;, &amp;quot;Fira Code&amp;quot;, monospace, Menlo, Monaco, &amp;quot;Courier New&amp;quot;, monospace; text-align: center; background-color: rgb(255, 255, 255);&quot;&gt;currentChartData&lt;/span&gt;)&lt;br&gt;&lt;span style=&quot;white-space: pre;&quot;&gt;&#9;&lt;/span&gt;2. 逻辑处理中生成的数据,&amp;nbsp; 比如&lt;br&gt;&lt;span style=&quot;&quot;&gt;&#9;&lt;/span&gt;&lt;span style=&quot;white-space: pre;&quot;&gt;&#9;&lt;span style=&quot;white-space: pre;&quot;&gt;&#9;&lt;/span&gt;&lt;/span&gt;从项目静态资源中懒加载的图表配置数据(allPresetChartConfig)&lt;br&gt;&lt;span style=&quot;&quot;&gt;&#9;&lt;/span&gt;&lt;span style=&quot;white-space: pre;&quot;&gt;&lt;span style=&quot;white-space: pre;&quot;&gt;&#9;&lt;/span&gt;&#9;&lt;/span&gt;当前可以展示的图表配置数据(availablePresetChartConfig)&lt;br&gt;&lt;span style=&quot;white-space: pre;&quot;&gt;&#9;&lt;/span&gt;&lt;span style=&quot;white-space: pre;&quot;&gt;&#9;&lt;/span&gt;&lt;br&gt;&lt;br&gt;针对当前需求, 有两个合理的数据存储方式: &lt;br&gt;1. redux状态管理器&lt;br&gt;2. Context.provide 状态上下文&lt;br&gt;&lt;br&gt;由于图表配置数据中存在函数, 不可被序列化, 无法在redux等状态管理器中存储, &lt;br&gt;因此选择:&lt;br&gt;1. 异步请求放在redux store中&lt;br&gt;2. 图表数据预设, 放在Context.provider中" style="rounded=0;whiteSpace=wrap;html=1;align=left;" parent="1" vertex="1">
                    <mxGeometry x="-540" y="200" width="500" height="610" as="geometry"/>
                </mxCell>
                <mxCell id="348" value="" style="rounded=0;whiteSpace=wrap;html=1;" parent="1" vertex="1">
                    <mxGeometry x="740" y="790" width="270" height="140" as="geometry"/>
                </mxCell>
                <mxCell id="349" value="展示的每个图表, 由两部分的数据组成:" style="text;html=1;strokeColor=none;fillColor=none;align=center;verticalAlign=middle;whiteSpace=wrap;rounded=0;" parent="1" vertex="1">
                    <mxGeometry x="763.75" y="790" width="212.5" height="30" as="geometry"/>
                </mxCell>
                <mxCell id="350" value="&lt;span style=&quot;color: rgb(0, 16, 128); font-family: &amp;quot;Input Mono&amp;quot;, &amp;quot;Fira Code&amp;quot;, monospace, Menlo, Monaco, &amp;quot;Courier New&amp;quot;, monospace; background-color: rgb(255, 255, 255);&quot;&gt;currentChartData&lt;/span&gt;&lt;br&gt;数据源: 通过select组件选择的数据" style="rounded=0;whiteSpace=wrap;html=1;" parent="1" vertex="1">
                    <mxGeometry x="750" y="820" width="240" height="40" as="geometry"/>
                </mxCell>
                <mxCell id="351" value="&lt;span style=&quot;font-family: &amp;quot;Input Mono&amp;quot;, &amp;quot;Fira Code&amp;quot;, monospace, Menlo, Monaco, &amp;quot;Courier New&amp;quot;, monospace; background-color: rgb(255, 255, 255);&quot;&gt;availablePresetChartConfig&lt;br&gt;&lt;/span&gt;图表预设: 根据数据源的&lt;span style=&quot;background-color: rgb(255, 255, 255); font-family: &amp;quot;Input Mono&amp;quot;, &amp;quot;Fira Code&amp;quot;, monospace, Menlo, Monaco, &amp;quot;Courier New&amp;quot;, monospace;&quot;&gt;chartType字段,&lt;br&gt;过滤出的图表预设&lt;br&gt;&lt;/span&gt;" style="rounded=0;whiteSpace=wrap;html=1;" parent="1" vertex="1">
                    <mxGeometry x="750" y="870" width="240" height="50" as="geometry"/>
                </mxCell>
                <mxCell id="352" style="edgeStyle=none;html=1;entryX=0;entryY=0.5;entryDx=0;entryDy=0;" parent="1" source="288" target="333" edge="1">
                    <mxGeometry relative="1" as="geometry">
                        <Array as="points">
                            <mxPoint x="660" y="490"/>
                            <mxPoint x="660" y="120"/>
                        </Array>
                    </mxGeometry>
                </mxCell>
                <mxCell id="353" value="4" style="edgeLabel;html=1;align=center;verticalAlign=middle;resizable=0;points=[];" parent="352" vertex="1" connectable="0">
                    <mxGeometry x="-0.6982" y="-3" relative="1" as="geometry">
                        <mxPoint as="offset"/>
                    </mxGeometry>
                </mxCell>
                <mxCell id="354" style="edgeStyle=none;html=1;entryX=-0.006;entryY=0.366;entryDx=0;entryDy=0;entryPerimeter=0;" parent="1" source="288" target="292" edge="1">
                    <mxGeometry relative="1" as="geometry"/>
                </mxCell>
                <mxCell id="386" style="edgeStyle=none;html=1;entryX=0.5;entryY=0;entryDx=0;entryDy=0;" edge="1" parent="1" source="356" target="301">
                    <mxGeometry relative="1" as="geometry">
                        <Array as="points">
                            <mxPoint x="1790" y="55"/>
                        </Array>
                    </mxGeometry>
                </mxCell>
                <mxCell id="356" value="currentChartConfigByForm" style="rounded=0;whiteSpace=wrap;html=1;" parent="1" vertex="1">
                    <mxGeometry x="1943.5" y="35" width="249" height="40" as="geometry"/>
                </mxCell>
                <mxCell id="385" style="edgeStyle=none;html=1;entryX=0;entryY=0.5;entryDx=0;entryDy=0;" edge="1" parent="1" source="358" target="382">
                    <mxGeometry relative="1" as="geometry">
                        <Array as="points">
                            <mxPoint x="1600" y="210"/>
                        </Array>
                    </mxGeometry>
                </mxCell>
                <mxCell id="358" value="currentChartConfigByPreset" style="rounded=0;whiteSpace=wrap;html=1;" parent="1" vertex="1">
                    <mxGeometry x="1520" y="93" width="160" height="40" as="geometry"/>
                </mxCell>
                <mxCell id="361" value="" style="rounded=0;whiteSpace=wrap;html=1;" parent="1" vertex="1">
                    <mxGeometry x="1141" y="-7" width="200" height="100" as="geometry"/>
                </mxCell>
                <mxCell id="362" value="&lt;div style=&quot;color: rgb(59, 59, 59); background-color: rgb(255, 255, 255); font-family: &amp;quot;Input Mono&amp;quot;, &amp;quot;Fira Code&amp;quot;, monospace, Menlo, Monaco, &amp;quot;Courier New&amp;quot;, monospace; line-height: 18px;&quot;&gt;&lt;div style=&quot;line-height: 18px;&quot;&gt;&lt;span style=&quot;color: #001080;&quot;&gt;allPresetChartConfig&lt;/span&gt;&lt;/div&gt;&lt;/div&gt;&lt;div style=&quot;color: rgb(59, 59, 59); background-color: rgb(255, 255, 255); font-family: &amp;quot;Input Mono&amp;quot;, &amp;quot;Fira Code&amp;quot;, monospace, Menlo, Monaco, &amp;quot;Courier New&amp;quot;, monospace; line-height: 18px;&quot;&gt;&lt;span style=&quot;color: rgb(0, 16, 128);&quot;&gt;全部预设图表配置列表&lt;/span&gt;&lt;br&gt;&lt;/div&gt;" style="rounded=0;whiteSpace=wrap;html=1;" parent="1" vertex="1">
                    <mxGeometry x="1160" y="40" width="160" height="45" as="geometry"/>
                </mxCell>
                <mxCell id="363" value="&lt;div style=&quot;color: rgb(59, 59, 59); background-color: rgb(255, 255, 255); font-family: &amp;quot;Input Mono&amp;quot;, &amp;quot;Fira Code&amp;quot;, monospace, Menlo, Monaco, &amp;quot;Courier New&amp;quot;, monospace; line-height: 18px;&quot;&gt;&lt;div style=&quot;line-height: 18px;&quot;&gt;&lt;div style=&quot;color: rgb(92, 97, 102); background-color: rgb(248, 249, 250); line-height: 18px;&quot;&gt;allChartFromConfig&lt;/div&gt;&lt;/div&gt;&lt;/div&gt;&lt;div style=&quot;background-color: rgb(255, 255, 255); font-family: &amp;quot;Input Mono&amp;quot;, &amp;quot;Fira Code&amp;quot;, monospace, Menlo, Monaco, &amp;quot;Courier New&amp;quot;, monospace; line-height: 18px;&quot;&gt;&lt;font color=&quot;#001080&quot;&gt;全部表单配置列表&lt;/font&gt;&lt;/div&gt;" style="rounded=0;whiteSpace=wrap;html=1;" parent="1" vertex="1">
                    <mxGeometry x="1160" width="160" height="45" as="geometry"/>
                </mxCell>
                <mxCell id="364" style="edgeStyle=none;html=1;entryX=0.5;entryY=1;entryDx=0;entryDy=0;" parent="1" source="288" edge="1" target="301">
                    <mxGeometry relative="1" as="geometry">
                        <mxPoint x="2160" y="950" as="targetPoint"/>
                        <Array as="points">
                            <mxPoint x="660" y="520"/>
                            <mxPoint x="660" y="1010"/>
                            <mxPoint x="1800" y="980"/>
                        </Array>
                    </mxGeometry>
                </mxCell>
                <mxCell id="365" value="图表配置" style="text;html=1;align=center;verticalAlign=middle;resizable=0;points=[];autosize=1;strokeColor=none;fillColor=none;" vertex="1" parent="1">
                    <mxGeometry x="1960" y="284.54999999999995" width="70" height="30" as="geometry"/>
                </mxCell>
                <mxCell id="366" value="" style="rounded=0;whiteSpace=wrap;html=1;" vertex="1" parent="1">
                    <mxGeometry x="1968" y="370" width="200" height="160" as="geometry"/>
                </mxCell>
                <mxCell id="368" value="树形组件" style="text;html=1;align=center;verticalAlign=middle;resizable=0;points=[];autosize=1;strokeColor=none;fillColor=none;" vertex="1" parent="1">
                    <mxGeometry x="1968" y="374.99999999999994" width="70" height="30" as="geometry"/>
                </mxCell>
                <mxCell id="377" value="&lt;span style=&quot;&quot;&gt;表单组件&lt;/span&gt;" style="rounded=0;whiteSpace=wrap;html=1;" vertex="1" parent="1">
                    <mxGeometry x="1990.5" y="410" width="155" height="95" as="geometry"/>
                </mxCell>
                <mxCell id="375" style="edgeStyle=none;html=1;entryX=0;entryY=0.5;entryDx=0;entryDy=0;" edge="1" parent="1" source="358" target="377">
                    <mxGeometry relative="1" as="geometry">
                        <mxPoint x="1600" y="405" as="targetPoint"/>
                        <Array as="points">
                            <mxPoint x="1600" y="460"/>
                        </Array>
                    </mxGeometry>
                </mxCell>
                <mxCell id="379" value="3.1设置表单初始值" style="edgeLabel;html=1;align=center;verticalAlign=middle;resizable=0;points=[];" vertex="1" connectable="0" parent="375">
                    <mxGeometry x="0.1847" y="-1" relative="1" as="geometry">
                        <mxPoint x="-44" y="-1" as="offset"/>
                    </mxGeometry>
                </mxCell>
                <mxCell id="384" style="edgeStyle=none;html=1;entryX=0.5;entryY=1;entryDx=0;entryDy=0;" edge="1" parent="1" source="382" target="356">
                    <mxGeometry relative="1" as="geometry"/>
                </mxCell>
                <mxCell id="382" value="表单数据变化时,&lt;br&gt;合并表单数据与预设数据" style="rhombus;whiteSpace=wrap;html=1;" vertex="1" parent="1">
                    <mxGeometry x="1938" y="190.5" width="260" height="59" as="geometry"/>
                </mxCell>
                <mxCell id="383" value="" style="endArrow=classic;html=1;entryX=0.5;entryY=1;entryDx=0;entryDy=0;" edge="1" parent="1" source="377" target="382">
                    <mxGeometry width="50" height="50" relative="1" as="geometry">
                        <mxPoint x="2068" y="389.28932188134524" as="sourcePoint"/>
                        <mxPoint x="2068" y="339.28932188134524" as="targetPoint"/>
                    </mxGeometry>
                </mxCell>
                <mxCell id="387" value="3.2更改表单, &lt;br&gt;产生新配置" style="edgeLabel;html=1;align=center;verticalAlign=middle;resizable=0;points=[];" vertex="1" connectable="0" parent="383">
                    <mxGeometry x="-0.0175" y="-1" relative="1" as="geometry">
                        <mxPoint as="offset"/>
                    </mxGeometry>
                </mxCell>
            </root>
        </mxGraphModel>
    </diagram>
</mxfile>
